[2026-03-25T02:33:15] SOURCE: D:\apps\ErsatzTV-HLS-Copy-Prep\source\10.mp4
[2026-03-25T02:33:15] TARGET: D:\apps\ErsatzTV-HLS-Copy-Prep\target\10.mp4
[2026-03-25T02:33:15] FPS: 25.000000
[2026-03-25T02:33:15] CMD: ["D:\\apps\\ErsatzTV-HLS-Copy-Prep\\bin\\ffmpeg.exe", "-y", "-hide_banner", "-loglevel", "info", "-stats_period", "5", "-progress", "pipe:1", "-i", "D:\\apps\\ErsatzTV-HLS-Copy-Prep\\source\\10.mp4", "-map", "0:v:0", "-map", "0:a:0?", "-sn", "-dn", "-vf", "scale=trunc(iw/2)*2:trunc(ih/2)*2,setsar=1,fps=25", "-c:v", "libx264", "-preset", "medium", "-crf", "18", "-pix_fmt", "yuv420p", "-profile:v", "high", "-level", "4.1", "-g", "25", "-keyint_min", "25", "-sc_threshold", "0", "-bf", "0", "-force_key_frames", "expr:gte(t,n_forced*1)", "-c:a", "aac", "-b:a", "192k", "-ar", "48000", "-ac", "2", "-movflags", "+faststart", "D:\\apps\\ErsatzTV-HLS-Copy-Prep\\target\\10.mp4"]

ffmpeg stats and -progress period set to 5.
Input #0, mov,mp4,m4a,3gp,3g2,mj2, from 'D:\apps\ErsatzTV-HLS-Copy-Prep\source\10.mp4':
  Metadata:
    major_brand     : isom
    minor_version   : 512
    compatible_brands: isomiso2avc1mp41
    date            : 2023-08-19T12:02:15.4398382+08:00
    encoder         : Lavf58.32.104
  Duration: 00:25:45.81, start: 0.000000, bitrate: 1622 kb/s
  Stream #0:0[0x1](und): Video: h264 (High) (avc1 / 0x31637661), yuv420p(tv, bt709, progressive), 1920x1080 [SAR 1:1 DAR 16:9], 1522 kb/s, 25 fps, 25 tbr, 90k tbn (default)
      Metadata:
        handler_name    : VideoHandler
        vendor_id       : [0][0][0][0]
  Stream #0:1[0x2](und): Audio: aac (LC) (mp4a / 0x6134706D), 48000 Hz, stereo, fltp, 93 kb/s (default)
      Metadata:
        handler_name    : SoundHandler
        vendor_id       : [0][0][0][0]
Stream mapping:
  Stream #0:0 -> #0:0 (h264 (native) -> h264 (libx264))
  Stream #0:1 -> #0:1 (aac (native) -> aac (native))
Press [q] to stop, [?] for help
[libx264 @ 0000021408d92780] using SAR=1/1
[libx264 @ 0000021408d92780] using cpu capabilities: MMX2 SSE2Fast SSSE3 SSE4.2 AVX
[libx264 @ 0000021408d92780] profile High, level 4.1, 4:2:0, 8-bit
[libx264 @ 0000021408d92780] 264 - core 165 - H.264/MPEG-4 AVC codec - Copyleft 2003-2025 - http://www.videolan.org/x264.html - options: cabac=1 ref=3 deblock=1:0:0 analyse=0x3:0x113 me=hex subme=7 psy=1 psy_rd=1.00:0.00 mixed_ref=1 me_range=16 chroma_me=1 trellis=1 8x8dct=1 cqm=0 deadzone=21,11 fast_pskip=1 chroma_qp_offset=-2 threads=12 lookahead_threads=2 sliced_threads=0 nr=0 decimate=1 interlaced=0 bluray_compat=0 constrained_intra=0 bframes=0 weightp=2 keyint=25 keyint_min=13 scenecut=0 intra_refresh=0 rc_lookahead=25 rc=crf mbtree=1 crf=18.0 qcomp=0.60 qpmin=0 qpmax=69 qpstep=4 ip_ratio=1.40 aq=1:1.00
Output #0, mp4, to 'D:\apps\ErsatzTV-HLS-Copy-Prep\target\10.mp4':
  Metadata:
    major_brand     : isom
    minor_version   : 512
    compatible_brands: isomiso2avc1mp41
    date            : 2023-08-19T12:02:15.4398382+08:00
    encoder         : Lavf61.7.100
  Stream #0:0(und): Video: h264 (avc1 / 0x31637661), yuv420p(tv, bt709, progressive), 1920x1080 [SAR 1:1 DAR 16:9], q=2-31, 25 fps, 12800 tbn (default)
      Metadata:
        handler_name    : VideoHandler
        vendor_id       : [0][0][0][0]
        encoder         : Lavc61.19.101 libx264
      Side data:
        cpb: bitrate max/min/avg: 0/0/0 buffer size: 0 vbv_delay: N/A
  Stream #0:1(und): Audio: aac (LC) (mp4a / 0x6134706D), 48000 Hz, stereo, fltp, 192 kb/s (default)
      Metadata:
        handler_name    : SoundHandler
        vendor_id       : [0][0][0][0]
        encoder         : Lavc61.19.101 aac
frame=  290 fps= 58 q=20.0 size=    1792KiB time=00:00:11.64 bitrate=1261.2kbits/s speed=2.32x    
frame=290
fps=57.72
stream_0_0_q=20.0
bitrate=1261.2kbits/s
total_size=1835056
out_time_us=11640000
out_time_ms=11640000
out_time=00:00:11.640000
dup_frames=0
drop_frames=0
speed=2.32x
progress=continue
frame=  505 fps= 50 q=23.0 size=    4864KiB time=00:00:20.24 bitrate=1968.7kbits/s speed=2.02x    
frame=505
fps=50.35
stream_0_0_q=23.0
bitrate=1968.7kbits/s
total_size=4980784
out_time_us=20240000
out_time_ms=20240000
out_time=00:00:20.240000
dup_frames=0
drop_frames=0
speed=2.02x
progress=continue
frame=  639 fps= 42 q=23.0 size=    8448KiB time=00:00:25.56 bitrate=2707.6kbits/s speed= 1.7x    
frame=639
fps=42.47
stream_0_0_q=23.0
bitrate=2707.6kbits/s
total_size=8650800
out_time_us=25560000
out_time_ms=25560000
out_time=00:00:25.560000
dup_frames=0
drop_frames=0
speed= 1.7x
progress=continue
frame=  759 fps= 38 q=23.0 size=   12032KiB time=00:00:30.40 bitrate=3242.3kbits/s speed=1.51x    
frame=759
fps=37.82
stream_0_0_q=23.0
bitrate=3242.3kbits/s
total_size=12320816
out_time_us=30400000
out_time_ms=30400000
out_time=00:00:30.400000
dup_frames=0
drop_frames=0
speed=1.51x
progress=continue
frame=  879 fps= 35 q=23.0 size=   15616KiB time=00:00:35.20 bitrate=3634.3kbits/s speed= 1.4x    
frame=879
fps=35.05
stream_0_0_q=23.0
bitrate=3634.3kbits/s
total_size=15990832
out_time_us=35200000
out_time_ms=35200000
out_time=00:00:35.200000
dup_frames=0
drop_frames=0
speed= 1.4x
progress=continue
frame= 1003 fps= 33 q=23.0 size=   19456KiB time=00:00:40.16 bitrate=3968.7kbits/s speed=1.33x    
frame=1003
fps=33.33
stream_0_0_q=23.0
bitrate=3968.7kbits/s
total_size=19922992
out_time_us=40160000
out_time_ms=40160000
out_time=00:00:40.160000
dup_frames=0
drop_frames=0
speed=1.33x
progress=continue
frame= 1109 fps= 32 q=23.0 size=   23040KiB time=00:00:44.36 bitrate=4254.8kbits/s speed=1.26x    
frame=1109
fps=31.59
stream_0_0_q=23.0
bitrate=4254.8kbits/s
total_size=23593008
out_time_us=44360000
out_time_ms=44360000
out_time=00:00:44.360000
dup_frames=0
drop_frames=0
speed=1.26x
progress=continue
frame= 1211 fps= 30 q=23.0 size=   27392KiB time=00:00:48.48 bitrate=4628.6kbits/s speed=1.21x    
frame=1211
fps=30.16
stream_0_0_q=23.0
bitrate=4628.6kbits/s
total_size=28049456
out_time_us=48480000
out_time_ms=48480000
out_time=00:00:48.480000
dup_frames=0
drop_frames=0
speed=1.21x
progress=continue
frame= 1335 fps= 30 q=23.0 size=   30976KiB time=00:00:53.44 bitrate=4748.4kbits/s speed=1.18x    
frame=1335
fps=29.55
stream_0_0_q=23.0
bitrate=4748.4kbits/s
total_size=31719472
out_time_us=53440000
out_time_ms=53440000
out_time=00:00:53.440000
dup_frames=0
drop_frames=0
speed=1.18x
progress=continue
frame= 1448 fps= 29 q=23.0 size=   35072KiB time=00:00:57.96 bitrate=4957.0kbits/s speed=1.15x    
frame=1448
fps=28.85
stream_0_0_q=23.0
bitrate=4957.0kbits/s
total_size=35913776
out_time_us=57960000
out_time_ms=57960000
out_time=00:00:57.960000
dup_frames=0
drop_frames=0
speed=1.15x
progress=continue
frame= 1547 fps= 28 q=23.0 size=   39680KiB time=00:01:01.92 bitrate=5249.7kbits/s speed=1.12x    
frame=1547
fps=28.02
stream_0_0_q=23.0
bitrate=5249.7kbits/s
total_size=40632368
out_time_us=61920000
out_time_ms=61920000
out_time=00:01:01.920000
dup_frames=0
drop_frames=0
speed=1.12x
progress=continue
frame= 1649 fps= 27 q=23.0 size=   44544KiB time=00:01:06.00 bitrate=5528.9kbits/s speed= 1.1x    
frame=1649
fps=27.37
stream_0_0_q=23.0
bitrate=5528.9kbits/s
total_size=45613104
out_time_us=66000000
out_time_ms=66000000
out_time=00:01:06.000000
dup_frames=0
drop_frames=0
speed= 1.1x
progress=continue
frame= 1781 fps= 27 q=23.0 size=   50176KiB time=00:01:11.28 bitrate=5766.6kbits/s speed=1.09x    
frame=1781
fps=27.28
stream_0_0_q=23.0
bitrate=5766.6kbits/s
total_size=51380272
out_time_us=71280000
out_time_ms=71280000
out_time=00:01:11.280000
dup_frames=0
drop_frames=0
speed=1.09x
progress=continue
frame= 1891 fps= 27 q=23.0 size=   54016KiB time=00:01:15.68 bitrate=5847.0kbits/s speed=1.08x    
frame=1891
fps=26.90
stream_0_0_q=23.0
bitrate=5847.0kbits/s
total_size=55312432
out_time_us=75680000
out_time_ms=75680000
out_time=00:01:15.680000
dup_frames=0
drop_frames=0
speed=1.08x
progress=continue
frame= 2005 fps= 27 q=23.0 size=   58368KiB time=00:01:20.24 bitrate=5959.0kbits/s speed=1.07x    
frame=2005
fps=26.62
stream_0_0_q=23.0
bitrate=5959.0kbits/s
total_size=59768880
out_time_us=80240000
out_time_ms=80240000
out_time=00:01:20.240000
dup_frames=0
drop_frames=0
speed=1.07x
progress=continue
frame= 2107 fps= 26 q=23.0 size=   62464KiB time=00:01:24.32 bitrate=6068.6kbits/s speed=1.05x    
frame=2107
fps=26.22
stream_0_0_q=23.0
bitrate=6068.6kbits/s
total_size=63963184
out_time_us=84320000
out_time_ms=84320000
out_time=00:01:24.320000
dup_frames=0
drop_frames=0
speed=1.05x
progress=continue
frame= 2234 fps= 26 q=23.0 size=   66560KiB time=00:01:29.40 bitrate=6099.1kbits/s speed=1.05x    
frame=2234
fps=26.17
stream_0_0_q=23.0
bitrate=6099.1kbits/s
total_size=68157488
out_time_us=89400000
out_time_ms=89400000
out_time=00:01:29.400000
dup_frames=0
drop_frames=0
speed=1.05x
progress=continue
frame= 2379 fps= 26 q=23.0 size=   71168KiB time=00:01:35.20 bitrate=6124.0kbits/s speed=1.05x    
frame=2379
fps=26.32
stream_0_0_q=23.0
bitrate=6124.0kbits/s
total_size=72876080
out_time_us=95200000
out_time_ms=95200000
out_time=00:01:35.200000
dup_frames=0
drop_frames=0
speed=1.05x
progress=continue
frame= 2503 fps= 26 q=23.0 size=   75520KiB time=00:01:40.16 bitrate=6176.7kbits/s speed=1.05x    
frame=2503
fps=26.24
stream_0_0_q=23.0
bitrate=6176.7kbits/s
total_size=77332528
out_time_us=100160000
out_time_ms=100160000
out_time=00:01:40.160000
dup_frames=0
drop_frames=0
speed=1.05x
progress=continue
frame= 2629 fps= 26 q=23.0 size=   79872KiB time=00:01:45.20 bitrate=6219.7kbits/s speed=1.05x    
frame=2629
fps=26.18
stream_0_0_q=23.0
bitrate=6219.7kbits/s
total_size=81788976
out_time_us=105200000
out_time_ms=105200000
out_time=00:01:45.200000
dup_frames=0
drop_frames=0
speed=1.05x
progress=continue
frame= 2796 fps= 27 q=23.0 size=   84736KiB time=00:01:51.88 bitrate=6204.5kbits/s speed=1.06x    
frame=2796
fps=26.52
stream_0_0_q=23.0
bitrate=6204.5kbits/s
total_size=86769712
out_time_us=111880000
out_time_ms=111880000
out_time=00:01:51.880000
dup_frames=0
drop_frames=0
speed=1.06x
progress=continue
frame= 2998 fps= 27 q=23.0 size=   87552KiB time=00:01:59.92 bitrate=5980.9kbits/s speed=1.09x    
frame=2998
fps=27.14
stream_0_0_q=23.0
bitrate=5980.9kbits/s
total_size=89653296
out_time_us=119920000
out_time_ms=119920000
out_time=00:01:59.920000
dup_frames=0
drop_frames=0
speed=1.09x
progress=continue
frame= 3116 fps= 27 q=23.0 size=   91648KiB time=00:02:04.68 bitrate=6021.7kbits/s speed=1.08x    
frame=3116
fps=26.98
stream_0_0_q=23.0
bitrate=6021.7kbits/s
total_size=93847600
out_time_us=124680000
out_time_ms=124680000
out_time=00:02:04.680000
dup_frames=0
drop_frames=0
speed=1.08x
progress=continue
frame= 3260 fps= 27 q=23.0 size=   94720KiB time=00:02:10.44 bitrate=5948.7kbits/s speed=1.08x    
frame=3260
fps=27.05
stream_0_0_q=23.0
bitrate=5948.7kbits/s
total_size=96993328
out_time_us=130440000
out_time_ms=130440000
out_time=00:02:10.440000
dup_frames=0
drop_frames=0
speed=1.08x
progress=continue
frame= 3437 fps= 27 q=23.0 size=   98560KiB time=00:02:17.48 bitrate=5872.9kbits/s speed= 1.1x    
frame=3437
fps=27.38
stream_0_0_q=23.0
bitrate=5872.9kbits/s
total_size=100925488
out_time_us=137480000
out_time_ms=137480000
out_time=00:02:17.480000
dup_frames=0
drop_frames=0
speed= 1.1x
progress=continue
frame= 3604 fps= 28 q=23.0 size=  101888KiB time=00:02:24.16 bitrate=5789.9kbits/s speed= 1.1x    
frame=3604
fps=27.61
stream_0_0_q=23.0
bitrate=5789.9kbits/s
total_size=104333360
out_time_us=144160000
out_time_ms=144160000
out_time=00:02:24.160000
dup_frames=0
drop_frames=0
speed= 1.1x
progress=continue
frame= 3758 fps= 28 q=23.0 size=  105472KiB time=00:02:30.36 bitrate=5746.4kbits/s speed=1.11x    
frame=3758
fps=27.72
stream_0_0_q=23.0
bitrate=5746.4kbits/s
total_size=108003376
out_time_us=150360000
out_time_ms=150360000
out_time=00:02:30.360000
dup_frames=0
drop_frames=0
speed=1.11x
progress=continue
frame= 3888 fps= 28 q=23.0 size=  109056KiB time=00:02:35.56 bitrate=5743.0kbits/s speed=1.11x    
frame=3888
fps=27.66
stream_0_0_q=23.0
bitrate=5743.0kbits/s
total_size=111673392
out_time_us=155560000
out_time_ms=155560000
out_time=00:02:35.560000
dup_frames=0
drop_frames=0
speed=1.11x
progress=continue
frame= 4058 fps= 28 q=23.0 size=  112384KiB time=00:02:42.36 bitrate=5670.4kbits/s speed=1.12x    
frame=4058
fps=27.87
stream_0_0_q=23.0
bitrate=5670.4kbits/s
total_size=115081264
out_time_us=162360000
out_time_ms=162360000
out_time=00:02:42.360000
dup_frames=0
drop_frames=0
speed=1.12x
progress=continue
frame= 4222 fps= 28 q=23.0 size=  115968KiB time=00:02:48.92 bitrate=5624.0kbits/s speed=1.12x    
frame=4222
fps=28.03
stream_0_0_q=23.0
bitrate=5624.0kbits/s
total_size=118751280
out_time_us=168920000
out_time_ms=168920000
out_time=00:02:48.920000
dup_frames=0
drop_frames=0
speed=1.12x
progress=continue
frame= 4368 fps= 28 q=23.0 size=  119552KiB time=00:02:54.72 bitrate=5605.4kbits/s speed=1.12x    
frame=4368
fps=28.07
stream_0_0_q=23.0
bitrate=5605.4kbits/s
total_size=122421296
out_time_us=174720000
out_time_ms=174720000
out_time=00:02:54.720000
dup_frames=0
drop_frames=0
speed=1.12x
progress=continue
frame= 4522 fps= 28 q=23.0 size=  123392KiB time=00:03:00.92 bitrate=5587.2kbits/s speed=1.13x    
frame=4522
fps=28.15
stream_0_0_q=23.0
bitrate=5587.2kbits/s
total_size=126353456
out_time_us=180920000
out_time_ms=180920000
out_time=00:03:00.920000
dup_frames=0
drop_frames=0
speed=1.13x
progress=continue
frame= 4655 fps= 28 q=23.0 size=  126720KiB time=00:03:06.24 bitrate=5573.9kbits/s speed=1.12x    
frame=4655
fps=28.10
stream_0_0_q=23.0
bitrate=5573.9kbits/s
total_size=129761328
out_time_us=186240000
out_time_ms=186240000
out_time=00:03:06.240000
dup_frames=0
drop_frames=0
speed=1.12x
progress=continue
frame= 4766 fps= 28 q=23.0 size=  130816KiB time=00:03:10.64 bitrate=5621.3kbits/s speed=1.12x    
frame=4766
fps=27.92
stream_0_0_q=23.0
bitrate=5621.3kbits/s
total_size=133955632
out_time_us=190640000
out_time_ms=190640000
out_time=00:03:10.640000
dup_frames=0
drop_frames=0
speed=1.12x
progress=continue
frame= 4872 fps= 28 q=23.0 size=  134144KiB time=00:03:14.92 bitrate=5637.7kbits/s speed=1.11x    
frame=4872
fps=27.72
stream_0_0_q=23.0
bitrate=5637.7kbits/s
total_size=137363504
out_time_us=194920000
out_time_ms=194920000
out_time=00:03:14.920000
dup_frames=0
drop_frames=0
speed=1.11x
progress=continue
frame= 4982 fps= 28 q=23.0 size=  137728KiB time=00:03:19.32 bitrate=5660.6kbits/s speed= 1.1x    
frame=4982
fps=27.56
stream_0_0_q=23.0
bitrate=5660.6kbits/s
total_size=141033520
out_time_us=199320000
out_time_ms=199320000
out_time=00:03:19.320000
dup_frames=0
drop_frames=0
speed= 1.1x
progress=continue
frame= 5120 fps= 28 q=23.0 size=  141312KiB time=00:03:24.76 bitrate=5653.6kbits/s speed= 1.1x    
frame=5120
fps=27.55
stream_0_0_q=23.0
bitrate=5653.6kbits/s
total_size=144703536
out_time_us=204760000
out_time_ms=204760000
out_time=00:03:24.760000
dup_frames=0
drop_frames=0
speed= 1.1x
progress=continue
frame= 5271 fps= 28 q=23.0 size=  144896KiB time=00:03:30.84 bitrate=5629.8kbits/s speed= 1.1x    
frame=5271
fps=27.61
stream_0_0_q=23.0
bitrate=5629.8kbits/s
total_size=148373552
out_time_us=210840000
out_time_ms=210840000
out_time=00:03:30.840000
dup_frames=0
drop_frames=0
speed= 1.1x
progress=continue
frame= 5446 fps= 28 q=23.0 size=  148224KiB time=00:03:37.84 bitrate=5574.1kbits/s speed=1.11x    
frame=5446
fps=27.79
stream_0_0_q=23.0
bitrate=5574.1kbits/s
total_size=151781424
out_time_us=217840000
out_time_ms=217840000
out_time=00:03:37.840000
dup_frames=0
drop_frames=0
speed=1.11x
progress=continue
frame= 5592 fps= 28 q=23.0 size=  151808KiB time=00:03:43.64 bitrate=5560.8kbits/s speed=1.11x    
frame=5592
fps=27.82
stream_0_0_q=23.0
bitrate=5560.8kbits/s
total_size=155451440
out_time_us=223640000
out_time_ms=223640000
out_time=00:03:43.640000
dup_frames=0
drop_frames=0
speed=1.11x
progress=continue
frame= 5712 fps= 28 q=23.0 size=  155136KiB time=00:03:48.52 bitrate=5561.3kbits/s speed=1.11x    
frame=5712
fps=27.71
stream_0_0_q=23.0
bitrate=5561.3kbits/s
total_size=158859312
out_time_us=228520000
out_time_ms=228520000
out_time=00:03:48.520000
dup_frames=0
drop_frames=0
speed=1.11x
progress=continue
frame= 5838 fps= 28 q=23.0 size=  158464KiB time=00:03:53.56 bitrate=5558.0kbits/s speed=1.11x    
frame=5838
fps=27.65
stream_0_0_q=23.0
bitrate=5558.0kbits/s
total_size=162267184
out_time_us=233560000
out_time_ms=233560000
out_time=00:03:53.560000
dup_frames=0
drop_frames=0
speed=1.11x
progress=continue
frame= 5977 fps= 28 q=23.0 size=  162048KiB time=00:03:59.08 bitrate=5552.5kbits/s speed=1.11x    
frame=5977
fps=27.65
stream_0_0_q=23.0
bitrate=5552.5kbits/s
total_size=165937200
out_time_us=239080000
out_time_ms=239080000
out_time=00:03:59.080000
dup_frames=0
drop_frames=0
speed=1.11x
progress=continue
frame= 6133 fps= 28 q=23.0 size=  165120KiB time=00:04:05.36 bitrate=5513.0kbits/s speed=1.11x    
frame=6133
fps=27.72
stream_0_0_q=23.0
bitrate=5513.0kbits/s
total_size=169082928
out_time_us=245360000
out_time_ms=245360000
out_time=00:04:05.360000
dup_frames=0
drop_frames=0
speed=1.11x
progress=continue
frame= 6284 fps= 28 q=23.0 size=  168448KiB time=00:04:11.32 bitrate=5490.7kbits/s speed=1.11x    
frame=6284
fps=27.77
stream_0_0_q=23.0
bitrate=5490.7kbits/s
total_size=172490800
out_time_us=251320000
out_time_ms=251320000
out_time=00:04:11.320000
dup_frames=0
drop_frames=0
speed=1.11x
progress=continue
frame= 6434 fps= 28 q=23.0 size=  172544KiB time=00:04:17.40 bitrate=5491.4kbits/s speed=1.11x    
frame=6434
fps=27.81
stream_0_0_q=23.0
bitrate=5491.4kbits/s
total_size=176685104
out_time_us=257400000
out_time_ms=257400000
out_time=00:04:17.400000
dup_frames=0
drop_frames=0
speed=1.11x
progress=continue
frame= 6586 fps= 28 q=23.0 size=  176128KiB time=00:04:23.44 bitrate=5476.9kbits/s speed=1.11x    
frame=6586
fps=27.87
stream_0_0_q=23.0
bitrate=5476.9kbits/s
total_size=180355120
out_time_us=263440000
out_time_ms=263440000
out_time=00:04:23.440000
dup_frames=0
drop_frames=0
speed=1.11x
progress=continue
frame= 6749 fps= 28 q=23.0 size=  179712KiB time=00:04:30.00 bitrate=5452.6kbits/s speed=1.12x    
frame=6749
fps=27.96
stream_0_0_q=23.0
bitrate=5452.6kbits/s
total_size=184025136
out_time_us=270000000
out_time_ms=270000000
out_time=00:04:30.000000
dup_frames=0
drop_frames=0
speed=1.12x
progress=continue
frame= 6946 fps= 28 q=23.0 size=  183296KiB time=00:04:37.84 bitrate=5404.4kbits/s speed=1.13x    
frame=6946
fps=28.19
stream_0_0_q=23.0
bitrate=5404.4kbits/s
total_size=187695152
out_time_us=277840000
out_time_ms=277840000
out_time=00:04:37.840000
dup_frames=0
drop_frames=0
speed=1.13x
progress=continue
frame= 7106 fps= 28 q=23.0 size=  186368KiB time=00:04:44.28 bitrate=5370.5kbits/s speed=1.13x    
frame=7106
fps=28.26
stream_0_0_q=23.0
bitrate=5370.5kbits/s
total_size=190840880
out_time_us=284280000
out_time_ms=284280000
out_time=00:04:44.280000
dup_frames=0
drop_frames=0
speed=1.13x
progress=continue
frame= 7248 fps= 28 q=23.0 size=  189696KiB time=00:04:49.96 bitrate=5359.3kbits/s speed=1.13x    
frame=7248
fps=28.26
stream_0_0_q=23.0
bitrate=5359.3kbits/s
total_size=194248752
out_time_us=289960000
out_time_ms=289960000
out_time=00:04:49.960000
dup_frames=0
drop_frames=0
speed=1.13x
progress=continue
frame= 7387 fps= 28 q=23.0 size=  192768KiB time=00:04:55.52 bitrate=5343.7kbits/s speed=1.13x    
frame=7387
fps=28.25
stream_0_0_q=23.0
bitrate=5343.7kbits/s
total_size=197394480
out_time_us=295520000
out_time_ms=295520000
out_time=00:04:55.520000
dup_frames=0
drop_frames=0
speed=1.13x
progress=continue
frame= 7514 fps= 28 q=23.0 size=  195584KiB time=00:05:00.60 bitrate=5330.1kbits/s speed=1.13x    
frame=7514
fps=28.19
stream_0_0_q=23.0
bitrate=5330.1kbits/s
total_size=200278064
out_time_us=300600000
out_time_ms=300600000
out_time=00:05:00.600000
dup_frames=0
drop_frames=0
speed=1.13x
progress=continue
frame= 7656 fps= 28 q=23.0 size=  198912KiB time=00:05:06.28 bitrate=5320.3kbits/s speed=1.13x    
frame=7656
fps=28.19
stream_0_0_q=23.0
bitrate=5320.3kbits/s
total_size=203685936
out_time_us=306280000
out_time_ms=306280000
out_time=00:05:06.280000
dup_frames=0
drop_frames=0
speed=1.13x
progress=continue
frame= 7817 fps= 28 q=23.0 size=  201984KiB time=00:05:12.72 bitrate=5291.2kbits/s speed=1.13x    
frame=7817
fps=28.26
stream_0_0_q=23.0
bitrate=5291.2kbits/s
total_size=206831664
out_time_us=312720000
out_time_ms=312720000
out_time=00:05:12.720000
dup_frames=0
drop_frames=0
speed=1.13x
progress=continue
frame= 7972 fps= 28 q=23.0 size=  205312KiB time=00:05:18.92 bitrate=5273.8kbits/s speed=1.13x    
frame=7972
fps=28.31
stream_0_0_q=23.0
bitrate=5273.8kbits/s
total_size=210239536
out_time_us=318920000
out_time_ms=318920000
out_time=00:05:18.920000
dup_frames=0
drop_frames=0
speed=1.13x
progress=continue
frame= 8140 fps= 28 q=20.0 size=  208640KiB time=00:05:25.64 bitrate=5248.7kbits/s speed=1.14x    
frame=8140
fps=28.40
stream_0_0_q=20.0
bitrate=5248.7kbits/s
total_size=213647408
out_time_us=325640000
out_time_ms=325640000
out_time=00:05:25.640000
dup_frames=0
drop_frames=0
speed=1.14x
progress=continue
frame= 8308 fps= 28 q=23.0 size=  211712KiB time=00:05:32.36 bitrate=5218.3kbits/s speed=1.14x    
frame=8308
fps=28.49
stream_0_0_q=23.0
bitrate=5218.3kbits/s
total_size=216793136
out_time_us=332360000
out_time_ms=332360000
out_time=00:05:32.360000
dup_frames=0
drop_frames=0
speed=1.14x
progress=continue
frame= 8459 fps= 29 q=23.0 size=  215040KiB time=00:05:38.36 bitrate=5206.3kbits/s speed=1.14x    
frame=8459
fps=28.51
stream_0_0_q=23.0
bitrate=5206.3kbits/s
total_size=220201008
out_time_us=338360000
out_time_ms=338360000
out_time=00:05:38.360000
dup_frames=0
drop_frames=0
speed=1.14x
progress=continue
frame= 8606 fps= 29 q=23.0 size=  218112KiB time=00:05:44.28 bitrate=5189.9kbits/s speed=1.14x    
frame=8606
fps=28.52
stream_0_0_q=23.0
bitrate=5189.9kbits/s
total_size=223346736
out_time_us=344280000
out_time_ms=344280000
out_time=00:05:44.280000
dup_frames=0
drop_frames=0
speed=1.14x
progress=continue
frame= 8807 fps= 29 q=23.0 size=  221696KiB time=00:05:52.32 bitrate=5154.8kbits/s speed=1.15x    
frame=8807
fps=28.71
stream_0_0_q=23.0
bitrate=5154.8kbits/s
total_size=227016752
out_time_us=352320000
out_time_ms=352320000
out_time=00:05:52.320000
dup_frames=0
drop_frames=0
speed=1.15x
progress=continue
frame= 9016 fps= 29 q=23.0 size=  224768KiB time=00:06:00.68 bitrate=5105.1kbits/s speed=1.16x    
frame=9016
fps=28.92
stream_0_0_q=23.0
bitrate=5105.1kbits/s
total_size=230162480
out_time_us=360680000
out_time_ms=360680000
out_time=00:06:00.680000
dup_frames=0
drop_frames=0
speed=1.16x
progress=continue
frame= 9186 fps= 29 q=23.0 size=  228096KiB time=00:06:07.48 bitrate=5084.8kbits/s speed=1.16x    
frame=9186
fps=29.00
stream_0_0_q=23.0
bitrate=5084.8kbits/s
total_size=233570352
out_time_us=367480000
out_time_ms=367480000
out_time=00:06:07.480000
dup_frames=0
drop_frames=0
speed=1.16x
progress=continue
frame= 9335 fps= 29 q=23.0 size=  232448KiB time=00:06:13.44 bitrate=5099.1kbits/s speed=1.16x    
frame=9335
fps=29.01
stream_0_0_q=23.0
bitrate=5099.1kbits/s
total_size=238026800
out_time_us=373440000
out_time_ms=373440000
out_time=00:06:13.440000
dup_frames=0
drop_frames=0
speed=1.16x
progress=continue
frame= 9456 fps= 29 q=23.0 size=  236288KiB time=00:06:18.24 bitrate=5117.6kbits/s speed=1.16x    
frame=9456
fps=28.93
stream_0_0_q=23.0
bitrate=5117.6kbits/s
total_size=241958960
out_time_us=378240000
out_time_ms=378240000
out_time=00:06:18.240000
dup_frames=0
drop_frames=0
speed=1.16x
progress=continue
frame= 9573 fps= 29 q=23.0 size=  240384KiB time=00:06:22.96 bitrate=5142.1kbits/s speed=1.15x    
frame=9573
fps=28.85
stream_0_0_q=23.0
bitrate=5142.1kbits/s
total_size=246153264
out_time_us=382960000
out_time_ms=382960000
out_time=00:06:22.960000
dup_frames=0
drop_frames=0
speed=1.15x
progress=continue
frame= 9712 fps= 29 q=23.0 size=  244736KiB time=00:06:28.44 bitrate=5161.4kbits/s speed=1.15x    
frame=9712
fps=28.82
stream_0_0_q=23.0
bitrate=5161.4kbits/s
total_size=250609712
out_time_us=388440000
out_time_ms=388440000
out_time=00:06:28.440000
dup_frames=0
drop_frames=0
speed=1.15x
progress=continue
frame= 9852 fps= 29 q=23.0 size=  248576KiB time=00:06:34.12 bitrate=5166.8kbits/s speed=1.15x    
frame=9852
fps=28.81
stream_0_0_q=23.0
bitrate=5166.8kbits/s
total_size=254541872
out_time_us=394120000
out_time_ms=394120000
out_time=00:06:34.120000
dup_frames=0
drop_frames=0
speed=1.15x
progress=continue
frame= 9993 fps= 29 q=23.0 size=  252160KiB time=00:06:39.76 bitrate=5167.3kbits/s speed=1.15x    
frame=9993
fps=28.80
stream_0_0_q=23.0
bitrate=5167.3kbits/s
total_size=258211888
out_time_us=399760000
out_time_ms=399760000
out_time=00:06:39.760000
dup_frames=0
drop_frames=0
speed=1.15x
progress=continue
frame=10135 fps= 29 q=23.0 size=  255232KiB time=00:06:45.44 bitrate=5157.0kbits/s speed=1.15x    
frame=10135
fps=28.79
stream_0_0_q=23.0
bitrate=5157.0kbits/s
total_size=261357616
out_time_us=405440000
out_time_ms=405440000
out_time=00:06:45.440000
dup_frames=0
drop_frames=0
speed=1.15x
progress=continue
frame=10269 fps= 29 q=23.0 size=  259584KiB time=00:06:50.80 bitrate=5176.5kbits/s speed=1.15x    
frame=10269
fps=28.76
stream_0_0_q=23.0
bitrate=5176.5kbits/s
total_size=265814064
out_time_us=410800000
out_time_ms=410800000
out_time=00:06:50.800000
dup_frames=0
drop_frames=0
speed=1.15x
progress=continue
frame=10414 fps= 29 q=23.0 size=  263424KiB time=00:06:56.52 bitrate=5181.0kbits/s speed=1.15x    
frame=10414
fps=28.76
stream_0_0_q=23.0
bitrate=5181.0kbits/s
total_size=269746224
out_time_us=416520000
out_time_ms=416520000
out_time=00:06:56.520000
dup_frames=0
drop_frames=0
speed=1.15x
progress=continue
frame=10548 fps= 29 q=23.0 size=  267008KiB time=00:07:01.92 bitrate=5184.2kbits/s speed=1.15x    
frame=10548
fps=28.73
stream_0_0_q=23.0
bitrate=5184.2kbits/s
total_size=273416240
out_time_us=421920000
out_time_ms=421920000
out_time=00:07:01.920000
dup_frames=0
drop_frames=0
speed=1.15x
progress=continue
frame=10695 fps= 29 q=23.0 size=  270848KiB time=00:07:07.80 bitrate=5186.5kbits/s speed=1.15x    
frame=10695
fps=28.73
stream_0_0_q=23.0
bitrate=5186.5kbits/s
total_size=277348400
out_time_us=427800000
out_time_ms=427800000
out_time=00:07:07.800000
dup_frames=0
drop_frames=0
speed=1.15x
progress=continue
frame=10843 fps= 29 q=23.0 size=  273920KiB time=00:07:13.76 bitrate=5173.3kbits/s speed=1.15x    
frame=10843
fps=28.74
stream_0_0_q=23.0
bitrate=5173.3kbits/s
total_size=280494128
out_time_us=433760000
out_time_ms=433760000
out_time=00:07:13.760000
dup_frames=0
drop_frames=0
speed=1.15x
progress=continue
frame=10992 fps= 29 q=23.0 size=  277760KiB time=00:07:19.64 bitrate=5175.6kbits/s speed=1.15x    
frame=10992
fps=28.75
stream_0_0_q=23.0
bitrate=5175.6kbits/s
total_size=284426288
out_time_us=439640000
out_time_ms=439640000
out_time=00:07:19.640000
dup_frames=0
drop_frames=0
speed=1.15x
progress=continue
frame=11137 fps= 29 q=23.0 size=  281856KiB time=00:07:25.52 bitrate=5182.6kbits/s speed=1.15x    
frame=11137
fps=28.75
stream_0_0_q=23.0
bitrate=5182.6kbits/s
total_size=288620592
out_time_us=445520000
out_time_ms=445520000
out_time=00:07:25.520000
dup_frames=0
drop_frames=0
speed=1.15x
progress=continue
frame=11287 fps= 29 q=23.0 size=  286208KiB time=00:07:31.52 bitrate=5192.7kbits/s speed=1.15x    
frame=11287
fps=28.76
stream_0_0_q=23.0
bitrate=5192.7kbits/s
total_size=293077040
out_time_us=451520000
out_time_ms=451520000
out_time=00:07:31.520000
dup_frames=0
drop_frames=0
speed=1.15x
progress=continue
frame=11438 fps= 29 q=23.0 size=  290304KiB time=00:07:37.56 bitrate=5197.5kbits/s speed=1.15x    
frame=11438
fps=28.78
stream_0_0_q=23.0
bitrate=5197.5kbits/s
total_size=297271344
out_time_us=457560000
out_time_ms=457560000
out_time=00:07:37.560000
dup_frames=0
drop_frames=0
speed=1.15x
progress=continue
frame=11595 fps= 29 q=23.0 size=  294144KiB time=00:07:43.84 bitrate=5195.0kbits/s speed=1.15x    
frame=11595
fps=28.81
stream_0_0_q=23.0
bitrate=5195.0kbits/s
total_size=301203504
out_time_us=463840000
out_time_ms=463840000
out_time=00:07:43.840000
dup_frames=0
drop_frames=0
speed=1.15x
progress=continue
frame=11730 fps= 29 q=23.0 size=  297984KiB time=00:07:49.24 bitrate=5202.2kbits/s speed=1.15x    
frame=11730
fps=28.78
stream_0_0_q=23.0
bitrate=5202.2kbits/s
total_size=305135664
out_time_us=469240000
out_time_ms=469240000
out_time=00:07:49.240000
dup_frames=0
drop_frames=0
speed=1.15x
progress=continue
frame=11888 fps= 29 q=23.0 size=  302080KiB time=00:07:55.56 bitrate=5203.6kbits/s speed=1.15x    
frame=11888
fps=28.82
stream_0_0_q=23.0
bitrate=5203.6kbits/s
total_size=309329968
out_time_us=475560000
out_time_ms=475560000
out_time=00:07:55.560000
dup_frames=0
drop_frames=0
speed=1.15x
progress=continue
frame=12042 fps= 29 q=23.0 size=  305664KiB time=00:08:01.72 bitrate=5198.0kbits/s speed=1.15x    
frame=12042
fps=28.84
stream_0_0_q=23.0
bitrate=5198.0kbits/s
total_size=312999984
out_time_us=481720000
out_time_ms=481720000
out_time=00:08:01.720000
dup_frames=0
drop_frames=0
speed=1.15x
progress=continue
frame=12197 fps= 29 q=23.0 size=  309760KiB time=00:08:07.92 bitrate=5200.8kbits/s speed=1.15x    
frame=12197
fps=28.86
stream_0_0_q=23.0
bitrate=5200.8kbits/s
total_size=317194288
out_time_us=487920000
out_time_ms=487920000
out_time=00:08:07.920000
dup_frames=0
drop_frames=0
speed=1.15x
progress=continue
frame=12356 fps= 29 q=23.0 size=  313344KiB time=00:08:14.24 bitrate=5193.7kbits/s speed=1.16x    
frame=12356
fps=28.89
stream_0_0_q=23.0
bitrate=5193.7kbits/s
total_size=320864304
out_time_us=494240000
out_time_ms=494240000
out_time=00:08:14.240000
dup_frames=0
drop_frames=0
speed=1.16x
progress=continue
frame=12514 fps= 29 q=23.0 size=  316416KiB time=00:08:20.60 bitrate=5177.9kbits/s speed=1.16x    
frame=12514
fps=28.92
stream_0_0_q=23.0
bitrate=5177.9kbits/s
total_size=324010032
out_time_us=500600000
out_time_ms=500600000
out_time=00:08:20.600000
dup_frames=0
drop_frames=0
speed=1.16x
progress=continue
frame=12677 fps= 29 q=23.0 size=  320000KiB time=00:08:27.12 bitrate=5169.3kbits/s speed=1.16x    
frame=12677
fps=28.96
stream_0_0_q=23.0
bitrate=5169.3kbits/s
total_size=327680048
out_time_us=507120000
out_time_ms=507120000
out_time=00:08:27.120000
dup_frames=0
drop_frames=0
speed=1.16x
progress=continue
frame=12833 fps= 29 q=23.0 size=  324352KiB time=00:08:33.36 bitrate=5175.9kbits/s speed=1.16x    
frame=12833
fps=28.98
stream_0_0_q=23.0
bitrate=5175.9kbits/s
total_size=332136496
out_time_us=513360000
out_time_ms=513360000
out_time=00:08:33.360000
dup_frames=0
drop_frames=0
speed=1.16x
progress=continue
frame=12996 fps= 29 q=23.0 size=  328448KiB time=00:08:39.88 bitrate=5175.5kbits/s speed=1.16x    
frame=12996
fps=29.02
stream_0_0_q=23.0
bitrate=5175.5kbits/s
total_size=336330800
out_time_us=519880000
out_time_ms=519880000
out_time=00:08:39.880000
dup_frames=0
drop_frames=0
speed=1.16x
progress=continue
frame=13158 fps= 29 q=23.0 size=  332544KiB time=00:08:46.36 bitrate=5175.5kbits/s speed=1.16x    
frame=13158
fps=29.06
stream_0_0_q=23.0
bitrate=5175.5kbits/s
total_size=340525104
out_time_us=526360000
out_time_ms=526360000
out_time=00:08:46.360000
dup_frames=0
drop_frames=0
speed=1.16x
progress=continue
frame=13279 fps= 29 q=23.0 size=  336384KiB time=00:08:51.04 bitrate=5189.2kbits/s speed=1.16x    
frame=13279
fps=29.00
stream_0_0_q=23.0
bitrate=5189.2kbits/s
total_size=344457264
out_time_us=531040000
out_time_ms=531040000
out_time=00:08:51.040000
dup_frames=0
drop_frames=0
speed=1.16x
progress=continue
frame=13412 fps= 29 q=23.0 size=  339456KiB time=00:08:56.52 bitrate=5183.1kbits/s speed=1.16x    
frame=13412
fps=28.97
stream_0_0_q=23.0
bitrate=5183.1kbits/s
total_size=347602992
out_time_us=536520000
out_time_ms=536520000
out_time=00:08:56.520000
dup_frames=0
drop_frames=0
speed=1.16x
progress=continue
frame=13522 fps= 29 q=23.0 size=  343552KiB time=00:09:00.84 bitrate=5203.7kbits/s speed=1.16x    
frame=13522
fps=28.90
stream_0_0_q=23.0
bitrate=5203.7kbits/s
total_size=351797296
out_time_us=540840000
out_time_ms=540840000
out_time=00:09:00.840000
dup_frames=0
drop_frames=0
speed=1.16x
progress=continue
frame=13640 fps= 29 q=20.0 size=  347648KiB time=00:09:05.64 bitrate=5219.4kbits/s speed=1.15x    
frame=13640
fps=28.83
stream_0_0_q=20.0
bitrate=5219.4kbits/s
total_size=355991600
out_time_us=545640000
out_time_ms=545640000
out_time=00:09:05.640000
dup_frames=0
drop_frames=0
speed=1.15x
progress=continue
frame=13772 fps= 29 q=23.0 size=  351488KiB time=00:09:10.84 bitrate=5227.3kbits/s speed=1.15x    
frame=13772
fps=28.81
stream_0_0_q=23.0
bitrate=5227.3kbits/s
total_size=359923760
out_time_us=550840000
out_time_ms=550840000
out_time=00:09:10.840000
dup_frames=0
drop_frames=0
speed=1.15x
progress=continue
frame=13896 fps= 29 q=23.0 size=  355840KiB time=00:09:15.84 bitrate=5244.4kbits/s speed=1.15x    
frame=13896
fps=28.76
stream_0_0_q=23.0
bitrate=5244.4kbits/s
total_size=364380208
out_time_us=555840000
out_time_ms=555840000
out_time=00:09:15.840000
dup_frames=0
drop_frames=0
speed=1.15x
progress=continue
frame=14029 fps= 29 q=23.0 size=  359936KiB time=00:09:21.00 bitrate=5256.0kbits/s speed=1.15x    
frame=14029
fps=28.73
stream_0_0_q=23.0
bitrate=5256.0kbits/s
total_size=368574512
out_time_us=561000000
out_time_ms=561000000
out_time=00:09:21.000000
dup_frames=0
drop_frames=0
speed=1.15x
progress=continue
frame=14180 fps= 29 q=23.0 size=  364288KiB time=00:09:27.24 bitrate=5261.0kbits/s speed=1.15x    
frame=14180
fps=28.74
stream_0_0_q=23.0
bitrate=5261.0kbits/s
total_size=373030960
out_time_us=567240000
out_time_ms=567240000
out_time=00:09:27.240000
dup_frames=0
drop_frames=0
speed=1.15x
progress=continue
frame=14318 fps= 29 q=23.0 size=  367360KiB time=00:09:32.76 bitrate=5254.2kbits/s speed=1.15x    
frame=14318
fps=28.73
stream_0_0_q=23.0
bitrate=5254.2kbits/s
total_size=376176688
out_time_us=572760000
out_time_ms=572760000
out_time=00:09:32.760000
dup_frames=0
drop_frames=0
speed=1.15x
progress=continue
frame=14474 fps= 29 q=23.0 size=  371712KiB time=00:09:39.00 bitrate=5259.2kbits/s speed=1.15x    
frame=14474
fps=28.75
stream_0_0_q=23.0
bitrate=5259.2kbits/s
total_size=380633136
out_time_us=579000000
out_time_ms=579000000
out_time=00:09:39.000000
dup_frames=0
drop_frames=0
speed=1.15x
progress=continue
frame=14587 fps= 29 q=23.0 size=  376576KiB time=00:09:43.52 bitrate=5286.7kbits/s speed=1.15x    
frame=14587
fps=28.69
stream_0_0_q=23.0
bitrate=5286.7kbits/s
total_size=385613872
out_time_us=583520000
out_time_ms=583520000
out_time=00:09:43.520000
dup_frames=0
drop_frames=0
speed=1.15x
progress=continue
frame=14730 fps= 29 q=23.0 size=  380416KiB time=00:09:49.24 bitrate=5288.8kbits/s speed=1.15x    
frame=14730
fps=28.69
stream_0_0_q=23.0
bitrate=5288.8kbits/s
total_size=389546032
out_time_us=589240000
out_time_ms=589240000
out_time=00:09:49.240000
dup_frames=0
drop_frames=0
speed=1.15x
progress=continue
frame=14888 fps= 29 q=23.0 size=  384000KiB time=00:09:55.56 bitrate=5282.0kbits/s speed=1.15x    
frame=14888
fps=28.72
stream_0_0_q=23.0
bitrate=5282.0kbits/s
total_size=393216048
out_time_us=595560000
out_time_ms=595560000
out_time=00:09:55.560000
dup_frames=0
drop_frames=0
speed=1.15x
progress=continue
frame=15039 fps= 29 q=23.0 size=  387328KiB time=00:10:01.60 bitrate=5274.3kbits/s speed=1.15x    
frame=15039
fps=28.73
stream_0_0_q=23.0
bitrate=5274.3kbits/s
total_size=396623920
out_time_us=601600000
out_time_ms=601600000
out_time=00:10:01.600000
dup_frames=0
drop_frames=0
speed=1.15x
progress=continue
frame=15179 fps= 29 q=23.0 size=  391424KiB time=00:10:07.20 bitrate=5280.9kbits/s speed=1.15x    
frame=15179
fps=28.72
stream_0_0_q=23.0
bitrate=5280.9kbits/s
total_size=400818224
out_time_us=607200000
out_time_ms=607200000
out_time=00:10:07.200000
dup_frames=0
drop_frames=0
speed=1.15x
progress=continue
frame=15307 fps= 29 q=23.0 size=  395520KiB time=00:10:12.32 bitrate=5291.5kbits/s speed=1.15x    
frame=15307
fps=28.69
stream_0_0_q=23.0
bitrate=5291.5kbits/s
total_size=405012528
out_time_us=612320000
out_time_ms=612320000
out_time=00:10:12.320000
dup_frames=0
drop_frames=0
speed=1.15x
progress=continue
frame=15448 fps= 29 q=23.0 size=  399616KiB time=00:10:17.88 bitrate=5298.2kbits/s speed=1.15x    
frame=15448
fps=28.68
stream_0_0_q=23.0
bitrate=5298.2kbits/s
total_size=409206832
out_time_us=617880000
out_time_ms=617880000
out_time=00:10:17.880000
dup_frames=0
drop_frames=0
speed=1.15x
progress=continue
frame=15582 fps= 29 q=23.0 size=  403968KiB time=00:10:23.32 bitrate=5309.2kbits/s speed=1.15x    
frame=15582
fps=28.66
stream_0_0_q=23.0
bitrate=5309.2kbits/s
total_size=413663280
out_time_us=623320000
out_time_ms=623320000
out_time=00:10:23.320000
dup_frames=0
drop_frames=0
speed=1.15x
progress=continue
frame=15710 fps= 29 q=23.0 size=  407808KiB time=00:10:28.44 bitrate=5316.0kbits/s speed=1.15x    
frame=15710
fps=28.64
stream_0_0_q=23.0
bitrate=5316.0kbits/s
total_size=417595440
out_time_us=628440000
out_time_ms=628440000
out_time=00:10:28.440000
dup_frames=0
drop_frames=0
speed=1.15x
progress=continue
frame=15853 fps= 29 q=23.0 size=  411904KiB time=00:10:34.16 bitrate=5320.9kbits/s speed=1.15x    
frame=15853
fps=28.63
stream_0_0_q=23.0
bitrate=5320.9kbits/s
total_size=421789744
out_time_us=634160000
out_time_ms=634160000
out_time=00:10:34.160000
dup_frames=0
drop_frames=0
speed=1.15x
progress=continue
frame=15988 fps= 29 q=23.0 size=  415744KiB time=00:10:39.56 bitrate=5325.2kbits/s speed=1.14x    
frame=15988
fps=28.62
stream_0_0_q=23.0
bitrate=5325.2kbits/s
total_size=425721904
out_time_us=639560000
out_time_ms=639560000
out_time=00:10:39.560000
dup_frames=0
drop_frames=0
speed=1.14x
progress=continue
frame=16130 fps= 29 q=23.0 size=  419328KiB time=00:10:45.24 bitrate=5323.8kbits/s speed=1.14x    
frame=16130
fps=28.61
stream_0_0_q=23.0
bitrate=5323.8kbits/s
total_size=429391920
out_time_us=645240000
out_time_ms=645240000
out_time=00:10:45.240000
dup_frames=0
drop_frames=0
speed=1.14x
progress=continue
frame=16278 fps= 29 q=23.0 size=  423168KiB time=00:10:51.12 bitrate=5324.0kbits/s speed=1.14x    
frame=16278
fps=28.62
stream_0_0_q=23.0
bitrate=5324.0kbits/s
total_size=433324080
out_time_us=651120000
out_time_ms=651120000
out_time=00:10:51.120000
dup_frames=0
drop_frames=0
speed=1.14x
progress=continue
frame=16444 fps= 29 q=23.0 size=  426496KiB time=00:10:57.80 bitrate=5311.4kbits/s speed=1.15x    
frame=16444
fps=28.66
stream_0_0_q=23.0
bitrate=5311.4kbits/s
total_size=436731952
out_time_us=657800000
out_time_ms=657800000
out_time=00:10:57.800000
dup_frames=0
drop_frames=0
speed=1.15x
progress=continue
frame=16591 fps= 29 q=23.0 size=  430336KiB time=00:11:03.60 bitrate=5312.4kbits/s speed=1.15x    
frame=16591
fps=28.67
stream_0_0_q=23.0
bitrate=5312.4kbits/s
total_size=440664112
out_time_us=663600000
out_time_ms=663600000
out_time=00:11:03.600000
dup_frames=0
drop_frames=0
speed=1.15x
progress=continue
frame=16753 fps= 29 q=23.0 size=  434176KiB time=00:11:10.16 bitrate=5307.3kbits/s speed=1.15x    
frame=16753
fps=28.69
stream_0_0_q=23.0
bitrate=5307.3kbits/s
total_size=444596272
out_time_us=670160000
out_time_ms=670160000
out_time=00:11:10.160000
dup_frames=0
drop_frames=0
speed=1.15x
progress=continue
frame=16897 fps= 29 q=23.0 size=  437248KiB time=00:11:15.92 bitrate=5299.3kbits/s speed=1.15x    
frame=16897
fps=28.69
stream_0_0_q=23.0
bitrate=5299.3kbits/s
total_size=447742000
out_time_us=675920000
out_time_ms=675920000
out_time=00:11:15.920000
dup_frames=0
drop_frames=0
speed=1.15x
progress=continue
frame=17040 fps= 29 q=20.0 size=  440832KiB time=00:11:21.56 bitrate=5298.6kbits/s speed=1.15x    
frame=17040
fps=28.69
stream_0_0_q=20.0
bitrate=5298.6kbits/s
total_size=451412016
out_time_us=681560000
out_time_ms=681560000
out_time=00:11:21.560000
dup_frames=0
drop_frames=0
speed=1.15x
progress=continue
frame=17209 fps= 29 q=23.0 size=  444416KiB time=00:11:28.40 bitrate=5288.6kbits/s speed=1.15x    
frame=17209
fps=28.73
stream_0_0_q=23.0
bitrate=5288.6kbits/s
total_size=455082032
out_time_us=688400000
out_time_ms=688400000
out_time=00:11:28.400000
dup_frames=0
drop_frames=0
speed=1.15x
progress=continue
frame=17361 fps= 29 q=23.0 size=  447744KiB time=00:11:34.48 bitrate=5281.5kbits/s speed=1.15x    
frame=17361
fps=28.74
stream_0_0_q=23.0
bitrate=5281.5kbits/s
total_size=458489904
out_time_us=694480000
out_time_ms=694480000
out_time=00:11:34.480000
dup_frames=0
drop_frames=0
speed=1.15x
progress=continue
frame=17511 fps= 29 q=23.0 size=  451072KiB time=00:11:40.48 bitrate=5275.2kbits/s speed=1.15x    
frame=17511
fps=28.75
stream_0_0_q=23.0
bitrate=5275.2kbits/s
total_size=461897776
out_time_us=700480000
out_time_ms=700480000
out_time=00:11:40.480000
dup_frames=0
drop_frames=0
speed=1.15x
progress=continue
frame=17663 fps= 29 q=23.0 size=  454400KiB time=00:11:46.56 bitrate=5268.4kbits/s speed=1.15x    
frame=17663
fps=28.76
stream_0_0_q=23.0
bitrate=5268.4kbits/s
total_size=465305648
out_time_us=706560000
out_time_ms=706560000
out_time=00:11:46.560000
dup_frames=0
drop_frames=0
speed=1.15x
progress=continue
frame=17841 fps= 29 q=23.0 size=  457728KiB time=00:11:53.68 bitrate=5254.0kbits/s speed=1.15x    
frame=17841
fps=28.82
stream_0_0_q=23.0
bitrate=5254.0kbits/s
total_size=468713520
out_time_us=713680000
out_time_ms=713680000
out_time=00:11:53.680000
dup_frames=0
drop_frames=0
speed=1.15x
progress=continue
frame=18006 fps= 29 q=23.0 size=  461056KiB time=00:12:00.24 bitrate=5244.0kbits/s speed=1.15x    
frame=18006
fps=28.85
stream_0_0_q=23.0
bitrate=5244.0kbits/s
total_size=472121392
out_time_us=720240000
out_time_ms=720240000
out_time=00:12:00.240000
dup_frames=0
drop_frames=0
speed=1.15x
progress=continue
frame=18159 fps= 29 q=23.0 size=  464128KiB time=00:12:06.40 bitrate=5234.2kbits/s speed=1.15x    
frame=18159
fps=28.86
stream_0_0_q=23.0
bitrate=5234.2kbits/s
total_size=475267120
out_time_us=726400000
out_time_ms=726400000
out_time=00:12:06.400000
dup_frames=0
drop_frames=0
speed=1.15x
progress=continue
frame=18304 fps= 29 q=23.0 size=  467456KiB time=00:12:12.20 bitrate=5230.0kbits/s speed=1.15x    
frame=18304
fps=28.86
stream_0_0_q=23.0
bitrate=5230.0kbits/s
total_size=478674992
out_time_us=732200000
out_time_ms=732200000
out_time=00:12:12.200000
dup_frames=0
drop_frames=0
speed=1.15x
progress=continue
frame=18440 fps= 29 q=20.0 size=  470784KiB time=00:12:17.60 bitrate=5228.7kbits/s speed=1.15x    
frame=18440
fps=28.85
stream_0_0_q=20.0
bitrate=5228.7kbits/s
total_size=482082864
out_time_us=737600000
out_time_ms=737600000
out_time=00:12:17.600000
dup_frames=0
drop_frames=0
speed=1.15x
progress=continue
frame=18589 fps= 29 q=23.0 size=  474368KiB time=00:12:23.60 bitrate=5226.0kbits/s speed=1.15x    
frame=18589
fps=28.85
stream_0_0_q=23.0
bitrate=5226.0kbits/s
total_size=485752880
out_time_us=743600000
out_time_ms=743600000
out_time=00:12:23.600000
dup_frames=0
drop_frames=0
speed=1.15x
progress=continue
frame=18766 fps= 29 q=23.0 size=  477952KiB time=00:12:30.64 bitrate=5216.1kbits/s speed=1.16x    
frame=18766
fps=28.90
stream_0_0_q=23.0
bitrate=5216.1kbits/s
total_size=489422896
out_time_us=750640000
out_time_ms=750640000
out_time=00:12:30.640000
dup_frames=0
drop_frames=0
speed=1.16x
progress=continue
frame=18945 fps= 29 q=23.0 size=  481280KiB time=00:12:37.84 bitrate=5202.5kbits/s speed=1.16x    
frame=18945
fps=28.95
stream_0_0_q=23.0
bitrate=5202.5kbits/s
total_size=492830768
out_time_us=757840000
out_time_ms=757840000
out_time=00:12:37.840000
dup_frames=0
drop_frames=0
speed=1.16x
progress=continue
frame=19084 fps= 29 q=23.0 size=  484864KiB time=00:12:43.32 bitrate=5203.6kbits/s speed=1.16x    
frame=19084
fps=28.94
stream_0_0_q=23.0
bitrate=5203.6kbits/s
total_size=496500784
out_time_us=763320000
out_time_ms=763320000
out_time=00:12:43.320000
dup_frames=0
drop_frames=0
speed=1.16x
progress=continue
frame=19198 fps= 29 q=23.0 size=  488448KiB time=00:12:47.96 bitrate=5210.4kbits/s speed=1.16x    
frame=19198
fps=28.89
stream_0_0_q=23.0
bitrate=5210.4kbits/s
total_size=500170800
out_time_us=767960000
out_time_ms=767960000
out_time=00:12:47.960000
dup_frames=0
drop_frames=0
speed=1.16x
progress=continue
frame=19318 fps= 29 q=23.0 size=  491520KiB time=00:12:52.68 bitrate=5211.1kbits/s speed=1.15x    
frame=19318
fps=28.86
stream_0_0_q=23.0
bitrate=5211.1kbits/s
total_size=503316528
out_time_us=772680000
out_time_ms=772680000
out_time=00:12:52.680000
dup_frames=0
drop_frames=0
speed=1.15x
progress=continue
frame=19463 fps= 29 q=23.0 size=  494848KiB time=00:12:58.56 bitrate=5206.8kbits/s speed=1.15x    
frame=19463
fps=28.85
stream_0_0_q=23.0
bitrate=5206.8kbits/s
total_size=506724400
out_time_us=778560000
out_time_ms=778560000
out_time=00:12:58.560000
dup_frames=0
drop_frames=0
speed=1.15x
progress=continue
frame=19594 fps= 29 q=23.0 size=  498688KiB time=00:13:03.80 bitrate=5212.1kbits/s speed=1.15x    
frame=19594
fps=28.83
stream_0_0_q=23.0
bitrate=5212.1kbits/s
total_size=510656560
out_time_us=783800000
out_time_ms=783800000
out_time=00:13:03.800000
dup_frames=0
drop_frames=0
speed=1.15x
progress=continue
frame=19735 fps= 29 q=23.0 size=  502016KiB time=00:13:09.44 bitrate=5209.4kbits/s speed=1.15x    
frame=19735
fps=28.83
stream_0_0_q=23.0
bitrate=5209.4kbits/s
total_size=514064432
out_time_us=789440000
out_time_ms=789440000
out_time=00:13:09.440000
dup_frames=0
drop_frames=0
speed=1.15x
progress=continue
frame=19899 fps= 29 q=23.0 size=  505344KiB time=00:13:16.00 bitrate=5200.7kbits/s speed=1.15x    
frame=19899
fps=28.85
stream_0_0_q=23.0
bitrate=5200.7kbits/s
total_size=517472304
out_time_us=796000000
out_time_ms=796000000
out_time=00:13:16.000000
dup_frames=0
drop_frames=0
speed=1.15x
progress=continue
frame=20053 fps= 29 q=23.0 size=  508928KiB time=00:13:22.16 bitrate=5197.4kbits/s speed=1.15x    
frame=20053
fps=28.87
stream_0_0_q=23.0
bitrate=5197.4kbits/s
total_size=521142320
out_time_us=802160000
out_time_ms=802160000
out_time=00:13:22.160000
dup_frames=0
drop_frames=0
speed=1.15x
progress=continue
frame=20193 fps= 29 q=23.0 size=  512256KiB time=00:13:27.76 bitrate=5195.1kbits/s speed=1.15x    
frame=20193
fps=28.86
stream_0_0_q=23.0
bitrate=5195.1kbits/s
total_size=524550192
out_time_us=807760000
out_time_ms=807760000
out_time=00:13:27.760000
dup_frames=0
drop_frames=0
speed=1.15x
progress=continue
frame=20346 fps= 29 q=23.0 size=  515328KiB time=00:13:33.84 bitrate=5187.2kbits/s speed=1.15x    
frame=20346
fps=28.87
stream_0_0_q=23.0
bitrate=5187.2kbits/s
total_size=527695920
out_time_us=813840000
out_time_ms=813840000
out_time=00:13:33.840000
dup_frames=0
drop_frames=0
speed=1.15x
progress=continue
frame=20466 fps= 29 q=23.0 size=  518656KiB time=00:13:38.68 bitrate=5189.9kbits/s speed=1.15x    
frame=20466
fps=28.83
stream_0_0_q=23.0
bitrate=5189.9kbits/s
total_size=531103792
out_time_us=818680000
out_time_ms=818680000
out_time=00:13:38.680000
dup_frames=0
drop_frames=0
speed=1.15x
progress=continue
frame=20583 fps= 29 q=23.0 size=  522752KiB time=00:13:43.36 bitrate=5201.1kbits/s speed=1.15x    
frame=20583
fps=28.79
stream_0_0_q=23.0
bitrate=5201.1kbits/s
total_size=535298096
out_time_us=823360000
out_time_ms=823360000
out_time=00:13:43.360000
dup_frames=0
drop_frames=0
speed=1.15x
progress=continue
frame=20724 fps= 29 q=23.0 size=  526592KiB time=00:13:49.00 bitrate=5203.7kbits/s speed=1.15x    
frame=20724
fps=28.79
stream_0_0_q=23.0
bitrate=5203.7kbits/s
total_size=539230256
out_time_us=829000000
out_time_ms=829000000
out_time=00:13:49.000000
dup_frames=0
drop_frames=0
speed=1.15x
progress=continue
frame=20873 fps= 29 q=23.0 size=  530176KiB time=00:13:54.88 bitrate=5202.2kbits/s speed=1.15x    
frame=20873
fps=28.79
stream_0_0_q=23.0
bitrate=5202.2kbits/s
total_size=542900272
out_time_us=834880000
out_time_ms=834880000
out_time=00:13:54.880000
dup_frames=0
drop_frames=0
speed=1.15x
progress=continue
frame=21041 fps= 29 q=23.0 size=  533760KiB time=00:14:01.68 bitrate=5195.0kbits/s speed=1.15x    
frame=21041
fps=28.82
stream_0_0_q=23.0
bitrate=5195.0kbits/s
total_size=546570288
out_time_us=841680000
out_time_ms=841680000
out_time=00:14:01.680000
dup_frames=0
drop_frames=0
speed=1.15x
progress=continue
frame=21193 fps= 29 q=23.0 size=  537856KiB time=00:14:07.76 bitrate=5197.4kbits/s speed=1.15x    
frame=21193
fps=28.83
stream_0_0_q=23.0
bitrate=5197.4kbits/s
total_size=550764592
out_time_us=847760000
out_time_ms=847760000
out_time=00:14:07.760000
dup_frames=0
drop_frames=0
speed=1.15x
progress=continue
frame=21336 fps= 29 q=23.0 size=  541696KiB time=00:14:13.48 bitrate=5199.4kbits/s speed=1.15x    
frame=21336
fps=28.83
stream_0_0_q=23.0
bitrate=5199.4kbits/s
total_size=554696752
out_time_us=853480000
out_time_ms=853480000
out_time=00:14:13.480000
dup_frames=0
drop_frames=0
speed=1.15x
progress=continue
frame=21453 fps= 29 q=23.0 size=  545536KiB time=00:14:18.16 bitrate=5207.7kbits/s speed=1.15x    
frame=21453
fps=28.79
stream_0_0_q=23.0
bitrate=5207.7kbits/s
total_size=558628912
out_time_us=858160000
out_time_ms=858160000
out_time=00:14:18.160000
dup_frames=0
drop_frames=0
speed=1.15x
progress=continue
frame=21586 fps= 29 q=23.0 size=  548864KiB time=00:14:23.48 bitrate=5207.2kbits/s speed=1.15x    
frame=21586
fps=28.78
stream_0_0_q=23.0
bitrate=5207.2kbits/s
total_size=562036784
out_time_us=863480000
out_time_ms=863480000
out_time=00:14:23.480000
dup_frames=0
drop_frames=0
speed=1.15x
progress=continue
frame=21703 fps= 29 q=23.0 size=  552704KiB time=00:14:28.16 bitrate=5215.3kbits/s speed=1.15x    
frame=21703
fps=28.74
stream_0_0_q=23.0
bitrate=5215.3kbits/s
total_size=565968944
out_time_us=868160000
out_time_ms=868160000
out_time=00:14:28.160000
dup_frames=0
drop_frames=0
speed=1.15x
progress=continue
frame=21844 fps= 29 q=23.0 size=  556544KiB time=00:14:33.76 bitrate=5217.9kbits/s speed=1.15x    
frame=21844
fps=28.74
stream_0_0_q=23.0
bitrate=5217.9kbits/s
total_size=569901104
out_time_us=873760000
out_time_ms=873760000
out_time=00:14:33.760000
dup_frames=0
drop_frames=0
speed=1.15x
progress=continue
frame=21986 fps= 29 q=23.0 size=  560384KiB time=00:14:39.44 bitrate=5220.0kbits/s speed=1.15x    
frame=21986
fps=28.73
stream_0_0_q=23.0
bitrate=5220.0kbits/s
total_size=573833264
out_time_us=879440000
out_time_ms=879440000
out_time=00:14:39.440000
dup_frames=0
drop_frames=0
speed=1.15x
progress=continue
frame=22160 fps= 29 q=23.0 size=  563456KiB time=00:14:46.44 bitrate=5207.2kbits/s speed=1.15x    
frame=22160
fps=28.77
stream_0_0_q=23.0
bitrate=5207.2kbits/s
total_size=576978992
out_time_us=886440000
out_time_ms=886440000
out_time=00:14:46.440000
dup_frames=0
drop_frames=0
speed=1.15x
progress=continue
frame=22337 fps= 29 q=23.0 size=  566784KiB time=00:14:53.52 bitrate=5196.4kbits/s speed=1.15x    
frame=22337
fps=28.81
stream_0_0_q=23.0
bitrate=5196.4kbits/s
total_size=580386864
out_time_us=893520000
out_time_ms=893520000
out_time=00:14:53.520000
dup_frames=0
drop_frames=0
speed=1.15x
progress=continue
frame=22491 fps= 29 q=23.0 size=  570624KiB time=00:14:59.64 bitrate=5196.0kbits/s speed=1.15x    
frame=22491
fps=28.82
stream_0_0_q=23.0
bitrate=5196.0kbits/s
total_size=584319024
out_time_us=899640000
out_time_ms=899640000
out_time=00:14:59.640000
dup_frames=0
drop_frames=0
speed=1.15x
progress=continue
frame=22641 fps= 29 q=23.0 size=  574976KiB time=00:15:05.68 bitrate=5200.7kbits/s speed=1.15x    
frame=22641
fps=28.83
stream_0_0_q=23.0
bitrate=5200.7kbits/s
total_size=588775472
out_time_us=905680000
out_time_ms=905680000
out_time=00:15:05.680000
dup_frames=0
drop_frames=0
speed=1.15x
progress=continue
frame=22770 fps= 29 q=23.0 size=  578560KiB time=00:15:10.84 bitrate=5203.5kbits/s speed=1.15x    
frame=22770
fps=28.81
stream_0_0_q=23.0
bitrate=5203.5kbits/s
total_size=592445488
out_time_us=910840000
out_time_ms=910840000
out_time=00:15:10.840000
dup_frames=0
drop_frames=0
speed=1.15x
progress=continue
frame=22905 fps= 29 q=23.0 size=  582400KiB time=00:15:16.24 bitrate=5207.2kbits/s speed=1.15x    
frame=22905
fps=28.80
stream_0_0_q=23.0
bitrate=5207.2kbits/s
total_size=596377648
out_time_us=916240000
out_time_ms=916240000
out_time=00:15:16.240000
dup_frames=0
drop_frames=0
speed=1.15x
progress=continue
frame=23054 fps= 29 q=23.0 size=  585984KiB time=00:15:22.16 bitrate=5205.6kbits/s speed=1.15x    
frame=23054
fps=28.80
stream_0_0_q=23.0
bitrate=5205.6kbits/s
total_size=600047664
out_time_us=922160000
out_time_ms=922160000
out_time=00:15:22.160000
dup_frames=0
drop_frames=0
speed=1.15x
progress=continue
frame=23208 fps= 29 q=23.0 size=  589824KiB time=00:15:28.36 bitrate=5204.7kbits/s speed=1.15x    
frame=23208
fps=28.81
stream_0_0_q=23.0
bitrate=5204.7kbits/s
total_size=603979824
out_time_us=928360000
out_time_ms=928360000
out_time=00:15:28.360000
dup_frames=0
drop_frames=0
speed=1.15x
progress=continue
frame=23404 fps= 29 q=23.0 size=  593664KiB time=00:15:36.20 bitrate=5194.7kbits/s speed=1.16x    
frame=23404
fps=28.88
stream_0_0_q=23.0
bitrate=5194.7kbits/s
total_size=607911984
out_time_us=936200000
out_time_ms=936200000
out_time=00:15:36.200000
dup_frames=0
drop_frames=0
speed=1.16x
progress=continue
frame=23514 fps= 29 q=23.0 size=  597504KiB time=00:15:40.56 bitrate=5204.1kbits/s speed=1.15x    
frame=23514
fps=28.83
stream_0_0_q=23.0
bitrate=5204.1kbits/s
total_size=611844144
out_time_us=940560000
out_time_ms=940560000
out_time=00:15:40.560000
dup_frames=0
drop_frames=0
speed=1.15x
progress=continue
frame=23653 fps= 29 q=23.0 size=  601856KiB time=00:15:46.16 bitrate=5211.0kbits/s speed=1.15x    
frame=23653
fps=28.83
stream_0_0_q=23.0
bitrate=5211.0kbits/s
total_size=616300592
out_time_us=946160000
out_time_ms=946160000
out_time=00:15:46.160000
dup_frames=0
drop_frames=0
speed=1.15x
progress=continue
frame=23782 fps= 29 q=23.0 size=  605952KiB time=00:15:51.32 bitrate=5218.0kbits/s speed=1.15x    
frame=23782
fps=28.81
stream_0_0_q=23.0
bitrate=5218.0kbits/s
total_size=620494896
out_time_us=951320000
out_time_ms=951320000
out_time=00:15:51.320000
dup_frames=0
drop_frames=0
speed=1.15x
progress=continue
frame=23911 fps= 29 q=23.0 size=  610560KiB time=00:15:56.48 bitrate=5229.3kbits/s speed=1.15x    
frame=23911
fps=28.79
stream_0_0_q=23.0
bitrate=5229.3kbits/s
total_size=625213488
out_time_us=956480000
out_time_ms=956480000
out_time=00:15:56.480000
dup_frames=0
drop_frames=0
speed=1.15x
progress=continue
frame=24050 fps= 29 q=23.0 size=  615424KiB time=00:16:02.00 bitrate=5240.7kbits/s speed=1.15x    
frame=24050
fps=28.78
stream_0_0_q=23.0
bitrate=5240.7kbits/s
total_size=630194224
out_time_us=962000000
out_time_ms=962000000
out_time=00:16:02.000000
dup_frames=0
drop_frames=0
speed=1.15x
progress=continue
frame=24181 fps= 29 q=23.0 size=  619776KiB time=00:16:07.28 bitrate=5249.0kbits/s speed=1.15x    
frame=24181
fps=28.76
stream_0_0_q=23.0
bitrate=5249.0kbits/s
total_size=634650672
out_time_us=967280000
out_time_ms=967280000
out_time=00:16:07.280000
dup_frames=0
drop_frames=0
speed=1.15x
progress=continue
frame=24310 fps= 29 q=23.0 size=  624384KiB time=00:16:12.44 bitrate=5259.9kbits/s speed=1.15x    
frame=24310
fps=28.75
stream_0_0_q=23.0
bitrate=5259.9kbits/s
total_size=639369264
out_time_us=972440000
out_time_ms=972440000
out_time=00:16:12.440000
dup_frames=0
drop_frames=0
speed=1.15x
progress=continue
frame=24440 fps= 29 q=20.0 size=  628480KiB time=00:16:17.64 bitrate=5266.3kbits/s speed=1.15x    
frame=24440
fps=28.73
stream_0_0_q=20.0
bitrate=5266.3kbits/s
total_size=643563568
out_time_us=977640000
out_time_ms=977640000
out_time=00:16:17.640000
dup_frames=0
drop_frames=0
speed=1.15x
progress=continue
frame=24586 fps= 29 q=23.0 size=  632064KiB time=00:16:23.48 bitrate=5264.8kbits/s speed=1.15x    
frame=24586
fps=28.73
stream_0_0_q=23.0
bitrate=5264.8kbits/s
total_size=647233584
out_time_us=983480000
out_time_ms=983480000
out_time=00:16:23.480000
dup_frames=0
drop_frames=0
speed=1.15x
progress=continue
frame=24730 fps= 29 q=23.0 size=  636416KiB time=00:16:29.16 bitrate=5270.7kbits/s speed=1.15x    
frame=24730
fps=28.73
stream_0_0_q=23.0
bitrate=5270.7kbits/s
total_size=651690032
out_time_us=989160000
out_time_ms=989160000
out_time=00:16:29.160000
dup_frames=0
drop_frames=0
speed=1.15x
progress=continue
frame=24886 fps= 29 q=23.0 size=  640768KiB time=00:16:35.48 bitrate=5273.0kbits/s speed=1.15x    
frame=24886
fps=28.74
stream_0_0_q=23.0
bitrate=5273.0kbits/s
total_size=656146480
out_time_us=995480000
out_time_ms=995480000
out_time=00:16:35.480000
dup_frames=0
drop_frames=0
speed=1.15x
progress=continue
frame=25038 fps= 29 q=23.0 size=  644096KiB time=00:16:41.56 bitrate=5268.2kbits/s speed=1.15x    
frame=25038
fps=28.75
stream_0_0_q=23.0
bitrate=5268.2kbits/s
total_size=659554352
out_time_us=1001560000
out_time_ms=1001560000
out_time=00:16:41.560000
dup_frames=0
drop_frames=0
speed=1.15x
progress=continue
frame=25170 fps= 29 q=23.0 size=  648448KiB time=00:16:46.80 bitrate=5276.2kbits/s speed=1.15x    
frame=25170
fps=28.74
stream_0_0_q=23.0
bitrate=5276.2kbits/s
total_size=664010800
out_time_us=1006800000
out_time_ms=1006800000
out_time=00:16:46.800000
dup_frames=0
drop_frames=0
speed=1.15x
progress=continue
frame=25328 fps= 29 q=23.0 size=  653056KiB time=00:16:53.16 bitrate=5280.3kbits/s speed=1.15x    
frame=25328
fps=28.75
stream_0_0_q=23.0
bitrate=5280.3kbits/s
total_size=668729392
out_time_us=1013160000
out_time_ms=1013160000
out_time=00:16:53.160000
dup_frames=0
drop_frames=0
speed=1.15x
progress=continue
frame=25472 fps= 29 q=23.0 size=  656640KiB time=00:16:58.88 bitrate=5279.5kbits/s speed=1.15x    
frame=25472
fps=28.75
stream_0_0_q=23.0
bitrate=5279.5kbits/s
total_size=672399408
out_time_us=1018880000
out_time_ms=1018880000
out_time=00:16:58.880000
dup_frames=0
drop_frames=0
speed=1.15x
progress=continue
frame=25610 fps= 29 q=23.0 size=  660480KiB time=00:17:04.44 bitrate=5281.6kbits/s speed=1.15x    
frame=25610
fps=28.74
stream_0_0_q=23.0
bitrate=5281.6kbits/s
total_size=676331568
out_time_us=1024440000
out_time_ms=1024440000
out_time=00:17:04.440000
dup_frames=0
drop_frames=0
speed=1.15x
progress=continue
frame=25764 fps= 29 q=23.0 size=  664064KiB time=00:17:10.60 bitrate=5278.5kbits/s speed=1.15x    
frame=25764
fps=28.75
stream_0_0_q=23.0
bitrate=5278.5kbits/s
total_size=680001584
out_time_us=1030600000
out_time_ms=1030600000
out_time=00:17:10.600000
dup_frames=0
drop_frames=0
speed=1.15x
progress=continue
frame=25862 fps= 29 q=23.0 size=  670464KiB time=00:17:14.52 bitrate=5309.2kbits/s speed=1.15x    
frame=25862
fps=28.70
stream_0_0_q=23.0
bitrate=5309.2kbits/s
total_size=686555184
out_time_us=1034520000
out_time_ms=1034520000
out_time=00:17:14.520000
dup_frames=0
drop_frames=0
speed=1.15x
progress=continue
frame=25940 fps= 29 q=20.0 size=  676096KiB time=00:17:17.64 bitrate=5337.7kbits/s speed=1.15x    
frame=25940
fps=28.63
stream_0_0_q=20.0
bitrate=5337.7kbits/s
total_size=692322352
out_time_us=1037640000
out_time_ms=1037640000
out_time=00:17:17.640000
dup_frames=0
drop_frames=0
speed=1.15x
progress=continue
frame=26036 fps= 29 q=23.0 size=  681984KiB time=00:17:21.48 bitrate=5364.3kbits/s speed=1.14x    
frame=26036
fps=28.58
stream_0_0_q=23.0
bitrate=5364.3kbits/s
total_size=698351664
out_time_us=1041480000
out_time_ms=1041480000
out_time=00:17:21.480000
dup_frames=0
drop_frames=0
speed=1.14x
progress=continue
frame=26156 fps= 29 q=23.0 size=  688384KiB time=00:17:26.28 bitrate=5389.8kbits/s speed=1.14x    
frame=26156
fps=28.55
stream_0_0_q=23.0
bitrate=5389.8kbits/s
total_size=704905264
out_time_us=1046280000
out_time_ms=1046280000
out_time=00:17:26.280000
dup_frames=0
drop_frames=0
speed=1.14x
progress=continue
frame=26255 fps= 29 q=23.0 size=  692736KiB time=00:17:30.24 bitrate=5403.4kbits/s speed=1.14x    
frame=26255
fps=28.50
stream_0_0_q=23.0
bitrate=5403.4kbits/s
total_size=709361712
out_time_us=1050240000
out_time_ms=1050240000
out_time=00:17:30.240000
dup_frames=0
drop_frames=0
speed=1.14x
progress=continue
frame=26359 fps= 28 q=23.0 size=  698368KiB time=00:17:34.40 bitrate=5425.9kbits/s speed=1.14x    
frame=26359
fps=28.46
stream_0_0_q=23.0
bitrate=5425.9kbits/s
total_size=715128880
out_time_us=1054400000
out_time_ms=1054400000
out_time=00:17:34.400000
dup_frames=0
drop_frames=0
speed=1.14x
progress=continue
frame=26471 fps= 28 q=23.0 size=  703232KiB time=00:17:38.88 bitrate=5440.5kbits/s speed=1.14x    
frame=26471
fps=28.43
stream_0_0_q=23.0
bitrate=5440.5kbits/s
total_size=720109616
out_time_us=1058880000
out_time_ms=1058880000
out_time=00:17:38.880000
dup_frames=0
drop_frames=0
speed=1.14x
progress=continue
frame=26582 fps= 28 q=23.0 size=  708864KiB time=00:17:43.32 bitrate=5461.2kbits/s speed=1.14x    
frame=26582
fps=28.39
stream_0_0_q=23.0
bitrate=5461.2kbits/s
total_size=725876784
out_time_us=1063320000
out_time_ms=1063320000
out_time=00:17:43.320000
dup_frames=0
drop_frames=0
speed=1.14x
progress=continue
frame=26692 fps= 28 q=23.0 size=  714240KiB time=00:17:47.68 bitrate=5480.2kbits/s speed=1.13x    
frame=26692
fps=28.36
stream_0_0_q=23.0
bitrate=5480.2kbits/s
total_size=731381808
out_time_us=1067680000
out_time_ms=1067680000
out_time=00:17:47.680000
dup_frames=0
drop_frames=0
speed=1.13x
progress=continue
frame=26805 fps= 28 q=23.0 size=  720128KiB time=00:17:52.24 bitrate=5501.8kbits/s speed=1.13x    
frame=26805
fps=28.33
stream_0_0_q=23.0
bitrate=5501.8kbits/s
total_size=737411120
out_time_us=1072240000
out_time_ms=1072240000
out_time=00:17:52.240000
dup_frames=0
drop_frames=0
speed=1.13x
progress=continue
frame=26906 fps= 28 q=23.0 size=  725248KiB time=00:17:56.28 bitrate=5520.2kbits/s speed=1.13x    
frame=26906
fps=28.28
stream_0_0_q=23.0
bitrate=5520.2kbits/s
total_size=742654000
out_time_us=1076280000
out_time_ms=1076280000
out_time=00:17:56.280000
dup_frames=0
drop_frames=0
speed=1.13x
progress=continue
frame=26999 fps= 28 q=23.0 size=  730368KiB time=00:18:00.00 bitrate=5540.0kbits/s speed=1.13x    
frame=26999
fps=28.23
stream_0_0_q=23.0
bitrate=5540.0kbits/s
total_size=747896880
out_time_us=1080000000
out_time_ms=1080000000
out_time=00:18:00.000000
dup_frames=0
drop_frames=0
speed=1.13x
progress=continue
frame=27121 fps= 28 q=23.0 size=  734720KiB time=00:18:04.80 bitrate=5548.3kbits/s speed=1.13x    
frame=27121
fps=28.21
stream_0_0_q=23.0
bitrate=5548.3kbits/s
total_size=752353328
out_time_us=1084800000
out_time_ms=1084800000
out_time=00:18:04.800000
dup_frames=0
drop_frames=0
speed=1.13x
progress=continue
frame=27287 fps= 28 q=23.0 size=  738304KiB time=00:18:11.52 bitrate=5541.1kbits/s speed=1.13x    
frame=27287
fps=28.23
stream_0_0_q=23.0
bitrate=5541.1kbits/s
total_size=756023344
out_time_us=1091520000
out_time_ms=1091520000
out_time=00:18:11.520000
dup_frames=0
drop_frames=0
speed=1.13x
progress=continue
frame=27462 fps= 28 q=23.0 size=  741888KiB time=00:18:18.52 bitrate=5532.5kbits/s speed=1.13x    
frame=27462
fps=28.27
stream_0_0_q=23.0
bitrate=5532.5kbits/s
total_size=759693360
out_time_us=1098520000
out_time_ms=1098520000
out_time=00:18:18.520000
dup_frames=0
drop_frames=0
speed=1.13x
progress=continue
frame=27622 fps= 28 q=23.0 size=  745984KiB time=00:18:24.92 bitrate=5530.8kbits/s speed=1.13x    
frame=27622
fps=28.29
stream_0_0_q=23.0
bitrate=5530.8kbits/s
total_size=763887664
out_time_us=1104920000
out_time_ms=1104920000
out_time=00:18:24.920000
dup_frames=0
drop_frames=0
speed=1.13x
progress=continue
frame=27764 fps= 28 q=23.0 size=  749312KiB time=00:18:30.60 bitrate=5527.1kbits/s speed=1.13x    
frame=27764
fps=28.29
stream_0_0_q=23.0
bitrate=5527.1kbits/s
total_size=767295536
out_time_us=1110600000
out_time_ms=1110600000
out_time=00:18:30.600000
dup_frames=0
drop_frames=0
speed=1.13x
progress=continue
frame=27929 fps= 28 q=23.0 size=  754176KiB time=00:18:37.20 bitrate=5530.1kbits/s speed=1.13x    
frame=27929
fps=28.31
stream_0_0_q=23.0
bitrate=5530.1kbits/s
total_size=772276272
out_time_us=1117200000
out_time_ms=1117200000
out_time=00:18:37.200000
dup_frames=0
drop_frames=0
speed=1.13x
progress=continue
frame=28053 fps= 28 q=23.0 size=  758528KiB time=00:18:42.00 bitrate=5538.2kbits/s speed=1.13x    
frame=28053
fps=28.29
stream_0_0_q=23.0
bitrate=5538.2kbits/s
total_size=776732720
out_time_us=1122000000
out_time_ms=1122000000
out_time=00:18:42.000000
dup_frames=0
drop_frames=0
speed=1.13x
progress=continue
frame=28208 fps= 28 q=23.0 size=  762624KiB time=00:18:48.32 bitrate=5536.9kbits/s speed=1.13x    
frame=28208
fps=28.30
stream_0_0_q=23.0
bitrate=5536.9kbits/s
total_size=780927024
out_time_us=1128320000
out_time_ms=1128320000
out_time=00:18:48.320000
dup_frames=0
drop_frames=0
speed=1.13x
progress=continue
frame=28380 fps= 28 q=23.0 size=  766208KiB time=00:18:55.24 bitrate=5529.0kbits/s speed=1.13x    
frame=28380
fps=28.33
stream_0_0_q=23.0
bitrate=5529.0kbits/s
total_size=784597040
out_time_us=1135240000
out_time_ms=1135240000
out_time=00:18:55.240000
dup_frames=0
drop_frames=0
speed=1.13x
progress=continue
frame=28519 fps= 28 q=23.0 size=  769792KiB time=00:19:00.76 bitrate=5528.0kbits/s speed=1.13x    
frame=28519
fps=28.33
stream_0_0_q=23.0
bitrate=5528.0kbits/s
total_size=788267056
out_time_us=1140760000
out_time_ms=1140760000
out_time=00:19:00.760000
dup_frames=0
drop_frames=0
speed=1.13x
progress=continue
frame=28642 fps= 28 q=23.0 size=  773376KiB time=00:19:05.72 bitrate=5529.7kbits/s speed=1.13x    
frame=28642
fps=28.31
stream_0_0_q=23.0
bitrate=5529.7kbits/s
total_size=791937072
out_time_us=1145720000
out_time_ms=1145720000
out_time=00:19:05.720000
dup_frames=0
drop_frames=0
speed=1.13x
progress=continue
frame=28753 fps= 28 q=23.0 size=  777984KiB time=00:19:10.16 bitrate=5541.2kbits/s speed=1.13x    
frame=28753
fps=28.28
stream_0_0_q=23.0
bitrate=5541.2kbits/s
total_size=796655664
out_time_us=1150160000
out_time_ms=1150160000
out_time=00:19:10.160000
dup_frames=0
drop_frames=0
speed=1.13x
progress=continue
frame=28861 fps= 28 q=23.0 size=  782848KiB time=00:19:14.44 bitrate=5555.2kbits/s speed=1.13x    
frame=28861
fps=28.25
stream_0_0_q=23.0
bitrate=5555.2kbits/s
total_size=801636400
out_time_us=1154440000
out_time_ms=1154440000
out_time=00:19:14.440000
dup_frames=0
drop_frames=0
speed=1.13x
progress=continue
frame=28977 fps= 28 q=23.0 size=  787712KiB time=00:19:19.12 bitrate=5567.1kbits/s speed=1.13x    
frame=28977
fps=28.22
stream_0_0_q=23.0
bitrate=5567.1kbits/s
total_size=806617136
out_time_us=1159120000
out_time_ms=1159120000
out_time=00:19:19.120000
dup_frames=0
drop_frames=0
speed=1.13x
progress=continue
frame=29094 fps= 28 q=23.0 size=  792576KiB time=00:19:23.80 bitrate=5579.0kbits/s speed=1.13x    
frame=29094
fps=28.19
stream_0_0_q=23.0
bitrate=5579.0kbits/s
total_size=811597872
out_time_us=1163800000
out_time_ms=1163800000
out_time=00:19:23.800000
dup_frames=0
drop_frames=0
speed=1.13x
progress=continue
frame=29221 fps= 28 q=23.0 size=  797184KiB time=00:19:28.88 bitrate=5587.0kbits/s speed=1.13x    
frame=29221
fps=28.18
stream_0_0_q=23.0
bitrate=5587.0kbits/s
total_size=816316464
out_time_us=1168880000
out_time_ms=1168880000
out_time=00:19:28.880000
dup_frames=0
drop_frames=0
speed=1.13x
progress=continue
frame=29346 fps= 28 q=23.0 size=  802304KiB time=00:19:33.88 bitrate=5598.9kbits/s speed=1.13x    
frame=29346
fps=28.16
stream_0_0_q=23.0
bitrate=5598.9kbits/s
total_size=821559344
out_time_us=1173880000
out_time_ms=1173880000
out_time=00:19:33.880000
dup_frames=0
drop_frames=0
speed=1.13x
progress=continue
frame=29481 fps= 28 q=23.0 size=  807168KiB time=00:19:39.28 bitrate=5607.1kbits/s speed=1.13x    
frame=29481
fps=28.16
stream_0_0_q=23.0
bitrate=5607.1kbits/s
total_size=826540080
out_time_us=1179280000
out_time_ms=1179280000
out_time=00:19:39.280000
dup_frames=0
drop_frames=0
speed=1.13x
progress=continue
frame=29586 fps= 28 q=23.0 size=  811264KiB time=00:19:43.48 bitrate=5615.5kbits/s speed=1.12x    
frame=29586
fps=28.12
stream_0_0_q=23.0
bitrate=5615.5kbits/s
total_size=830734384
out_time_us=1183480000
out_time_ms=1183480000
out_time=00:19:43.480000
dup_frames=0
drop_frames=0
speed=1.12x
progress=continue
frame=29699 fps= 28 q=23.0 size=  815360KiB time=00:19:48.00 bitrate=5622.4kbits/s speed=1.12x    
frame=29699
fps=28.10
stream_0_0_q=23.0
bitrate=5622.4kbits/s
total_size=834928688
out_time_us=1188000000
out_time_ms=1188000000
out_time=00:19:48.000000
dup_frames=0
drop_frames=0
speed=1.12x
progress=continue
frame=29834 fps= 28 q=23.0 size=  819712KiB time=00:19:53.40 bitrate=5626.8kbits/s speed=1.12x    
frame=29834
fps=28.09
stream_0_0_q=23.0
bitrate=5626.8kbits/s
total_size=839385136
out_time_us=1193400000
out_time_ms=1193400000
out_time=00:19:53.400000
dup_frames=0
drop_frames=0
speed=1.12x
progress=continue
frame=29959 fps= 28 q=23.0 size=  824576KiB time=00:19:58.40 bitrate=5636.6kbits/s speed=1.12x    
frame=29959
fps=28.07
stream_0_0_q=23.0
bitrate=5636.6kbits/s
total_size=844365872
out_time_us=1198400000
out_time_ms=1198400000
out_time=00:19:58.400000
dup_frames=0
drop_frames=0
speed=1.12x
progress=continue
frame=30086 fps= 28 q=23.0 size=  828416KiB time=00:20:03.48 bitrate=5639.0kbits/s speed=1.12x    
frame=30086
fps=28.06
stream_0_0_q=23.0
bitrate=5639.0kbits/s
total_size=848298032
out_time_us=1203480000
out_time_ms=1203480000
out_time=00:20:03.480000
dup_frames=0
drop_frames=0
speed=1.12x
progress=continue
frame=30202 fps= 28 q=23.0 size=  832256KiB time=00:20:08.00 bitrate=5643.9kbits/s speed=1.12x    
frame=30202
fps=28.04
stream_0_0_q=23.0
bitrate=5643.9kbits/s
total_size=852230192
out_time_us=1208000000
out_time_ms=1208000000
out_time=00:20:08.000000
dup_frames=0
drop_frames=0
speed=1.12x
progress=continue
frame=30340 fps= 28 q=20.0 size=  836864KiB time=00:20:13.60 bitrate=5649.0kbits/s speed=1.12x    
frame=30340
fps=28.04
stream_0_0_q=20.0
bitrate=5649.0kbits/s
total_size=856948784
out_time_us=1213600000
out_time_ms=1213600000
out_time=00:20:13.600000
dup_frames=0
drop_frames=0
speed=1.12x
progress=continue
frame=30468 fps= 28 q=23.0 size=  840448KiB time=00:20:18.76 bitrate=5649.1kbits/s speed=1.12x    
frame=30468
fps=28.02
stream_0_0_q=23.0
bitrate=5649.1kbits/s
total_size=860618800
out_time_us=1218760000
out_time_ms=1218760000
out_time=00:20:18.760000
dup_frames=0
drop_frames=0
speed=1.12x
progress=continue
frame=30585 fps= 28 q=23.0 size=  844288KiB time=00:20:23.44 bitrate=5653.2kbits/s speed=1.12x    
frame=30585
fps=28.00
stream_0_0_q=23.0
bitrate=5653.2kbits/s
total_size=864550960
out_time_us=1223440000
out_time_ms=1223440000
out_time=00:20:23.440000
dup_frames=0
drop_frames=0
speed=1.12x
progress=continue
frame=30703 fps= 28 q=23.0 size=  848896KiB time=00:20:28.12 bitrate=5662.4kbits/s speed=1.12x    
frame=30703
fps=27.98
stream_0_0_q=23.0
bitrate=5662.4kbits/s
total_size=869269552
out_time_us=1228120000
out_time_ms=1228120000
out_time=00:20:28.120000
dup_frames=0
drop_frames=0
speed=1.12x
progress=continue
frame=30824 fps= 28 q=23.0 size=  852736KiB time=00:20:33.00 bitrate=5665.5kbits/s speed=1.12x    
frame=30824
fps=27.96
stream_0_0_q=23.0
bitrate=5665.5kbits/s
total_size=873201712
out_time_us=1233000000
out_time_ms=1233000000
out_time=00:20:33.000000
dup_frames=0
drop_frames=0
speed=1.12x
progress=continue
frame=30948 fps= 28 q=23.0 size=  857088KiB time=00:20:37.92 bitrate=5671.8kbits/s speed=1.12x    
frame=30948
fps=27.95
stream_0_0_q=23.0
bitrate=5671.8kbits/s
total_size=877658160
out_time_us=1237920000
out_time_ms=1237920000
out_time=00:20:37.920000
dup_frames=0
drop_frames=0
speed=1.12x
progress=continue
frame=31095 fps= 28 q=23.0 size=  861184KiB time=00:20:43.84 bitrate=5671.8kbits/s speed=1.12x    
frame=31095
fps=27.95
stream_0_0_q=23.0
bitrate=5671.8kbits/s
total_size=881852464
out_time_us=1243840000
out_time_ms=1243840000
out_time=00:20:43.840000
dup_frames=0
drop_frames=0
speed=1.12x
progress=continue
frame=31231 fps= 28 q=23.0 size=  866560KiB time=00:20:49.28 bitrate=5682.4kbits/s speed=1.12x    
frame=31231
fps=27.95
stream_0_0_q=23.0
bitrate=5682.4kbits/s
total_size=887357488
out_time_us=1249280000
out_time_ms=1249280000
out_time=00:20:49.280000
dup_frames=0
drop_frames=0
speed=1.12x
progress=continue
frame=31349 fps= 28 q=23.0 size=  870912KiB time=00:20:53.96 bitrate=5689.6kbits/s speed=1.12x    
frame=31349
fps=27.93
stream_0_0_q=23.0
bitrate=5689.6kbits/s
total_size=891813936
out_time_us=1253960000
out_time_ms=1253960000
out_time=00:20:53.960000
dup_frames=0
drop_frames=0
speed=1.12x
progress=continue
frame=31464 fps= 28 q=23.0 size=  874752KiB time=00:20:58.60 bitrate=5693.6kbits/s speed=1.12x    
frame=31464
fps=27.91
stream_0_0_q=23.0
bitrate=5693.6kbits/s
total_size=895746096
out_time_us=1258600000
out_time_ms=1258600000
out_time=00:20:58.600000
dup_frames=0
drop_frames=0
speed=1.12x
progress=continue
frame=31591 fps= 28 q=23.0 size=  878848KiB time=00:21:03.68 bitrate=5697.3kbits/s speed=1.12x    
frame=31591
fps=27.89
stream_0_0_q=23.0
bitrate=5697.3kbits/s
total_size=899940400
out_time_us=1263680000
out_time_ms=1263680000
out_time=00:21:03.680000
dup_frames=0
drop_frames=0
speed=1.12x
progress=continue
frame=31732 fps= 28 q=23.0 size=  882944KiB time=00:21:09.32 bitrate=5698.4kbits/s speed=1.12x    
frame=31732
fps=27.89
stream_0_0_q=23.0
bitrate=5698.4kbits/s
total_size=904134704
out_time_us=1269320000
out_time_ms=1269320000
out_time=00:21:09.320000
dup_frames=0
drop_frames=0
speed=1.12x
progress=continue
frame=31871 fps= 28 q=23.0 size=  888320KiB time=00:21:14.88 bitrate=5708.1kbits/s speed=1.12x    
frame=31871
fps=27.89
stream_0_0_q=23.0
bitrate=5708.1kbits/s
total_size=909639728
out_time_us=1274880000
out_time_ms=1274880000
out_time=00:21:14.880000
dup_frames=0
drop_frames=0
speed=1.12x
progress=continue
frame=31995 fps= 28 q=23.0 size=  892672KiB time=00:21:19.76 bitrate=5714.2kbits/s speed=1.12x    
frame=31995
fps=27.88
stream_0_0_q=23.0
bitrate=5714.2kbits/s
total_size=914096176
out_time_us=1279760000
out_time_ms=1279760000
out_time=00:21:19.760000
dup_frames=0
drop_frames=0
speed=1.12x
progress=continue
frame=32120 fps= 28 q=23.0 size=  896512KiB time=00:21:24.76 bitrate=5716.4kbits/s speed=1.11x    
frame=32120
fps=27.87
stream_0_0_q=23.0
bitrate=5716.4kbits/s
total_size=918028336
out_time_us=1284760000
out_time_ms=1284760000
out_time=00:21:24.760000
dup_frames=0
drop_frames=0
speed=1.11x
progress=continue
frame=32244 fps= 28 q=23.0 size=  900352KiB time=00:21:29.80 bitrate=5718.5kbits/s speed=1.11x    
frame=32244
fps=27.85
stream_0_0_q=23.0
bitrate=5718.5kbits/s
total_size=921960496
out_time_us=1289800000
out_time_ms=1289800000
out_time=00:21:29.800000
dup_frames=0
drop_frames=0
speed=1.11x
progress=continue
frame=32408 fps= 28 q=23.0 size=  904704KiB time=00:21:36.36 bitrate=5717.0kbits/s speed=1.11x    
frame=32408
fps=27.87
stream_0_0_q=23.0
bitrate=5717.0kbits/s
total_size=926416944
out_time_us=1296360000
out_time_ms=1296360000
out_time=00:21:36.360000
dup_frames=0
drop_frames=0
speed=1.11x
progress=continue
frame=32535 fps= 28 q=23.0 size=  908800KiB time=00:21:41.44 bitrate=5720.5kbits/s speed=1.11x    
frame=32535
fps=27.86
stream_0_0_q=23.0
bitrate=5720.5kbits/s
total_size=930611248
out_time_us=1301440000
out_time_ms=1301440000
out_time=00:21:41.440000
dup_frames=0
drop_frames=0
speed=1.11x
progress=continue
frame=32646 fps= 28 q=23.0 size=  913152KiB time=00:21:45.88 bitrate=5728.4kbits/s speed=1.11x    
frame=32646
fps=27.84
stream_0_0_q=23.0
bitrate=5728.4kbits/s
total_size=935067696
out_time_us=1305880000
out_time_ms=1305880000
out_time=00:21:45.880000
dup_frames=0
drop_frames=0
speed=1.11x
progress=continue
frame=32759 fps= 28 q=23.0 size=  918016KiB time=00:21:50.40 bitrate=5739.0kbits/s speed=1.11x    
frame=32759
fps=27.81
stream_0_0_q=23.0
bitrate=5739.0kbits/s
total_size=940048432
out_time_us=1310400000
out_time_ms=1310400000
out_time=00:21:50.400000
dup_frames=0
drop_frames=0
speed=1.11x
progress=continue
frame=32844 fps= 28 q=23.0 size=  922880KiB time=00:21:53.80 bitrate=5754.5kbits/s speed=1.11x    
frame=32844
fps=27.76
stream_0_0_q=23.0
bitrate=5754.5kbits/s
total_size=945029168
out_time_us=1313800000
out_time_ms=1313800000
out_time=00:21:53.800000
dup_frames=0
drop_frames=0
speed=1.11x
progress=continue
frame=32944 fps= 28 q=23.0 size=  928256KiB time=00:21:57.80 bitrate=5770.4kbits/s speed=1.11x    
frame=32944
fps=27.73
stream_0_0_q=23.0
bitrate=5770.4kbits/s
total_size=950534192
out_time_us=1317800000
out_time_ms=1317800000
out_time=00:21:57.800000
dup_frames=0
drop_frames=0
speed=1.11x
progress=continue
frame=33059 fps= 28 q=23.0 size=  934656KiB time=00:22:02.40 bitrate=5790.0kbits/s speed=1.11x    
frame=33059
fps=27.71
stream_0_0_q=23.0
bitrate=5790.0kbits/s
total_size=957087792
out_time_us=1322400000
out_time_ms=1322400000
out_time=00:22:02.400000
dup_frames=0
drop_frames=0
speed=1.11x
progress=continue
frame=33211 fps= 28 q=23.0 size=  940800KiB time=00:22:08.48 bitrate=5801.4kbits/s speed=1.11x    
frame=33211
fps=27.72
stream_0_0_q=23.0
bitrate=5801.4kbits/s
total_size=963379248
out_time_us=1328480000
out_time_ms=1328480000
out_time=00:22:08.480000
dup_frames=0
drop_frames=0
speed=1.11x
progress=continue
frame=33337 fps= 28 q=23.0 size=  944640KiB time=00:22:13.48 bitrate=5803.2kbits/s speed=1.11x    
frame=33337
fps=27.71
stream_0_0_q=23.0
bitrate=5803.2kbits/s
total_size=967311408
out_time_us=1333480000
out_time_ms=1333480000
out_time=00:22:13.480000
dup_frames=0
drop_frames=0
speed=1.11x
progress=continue
frame=33479 fps= 28 q=23.0 size=  947968KiB time=00:22:19.20 bitrate=5798.8kbits/s speed=1.11x    
frame=33479
fps=27.71
stream_0_0_q=23.0
bitrate=5798.8kbits/s
total_size=970719280
out_time_us=1339200000
out_time_ms=1339200000
out_time=00:22:19.200000
dup_frames=0
drop_frames=0
speed=1.11x
progress=continue
frame=33627 fps= 28 q=23.0 size=  952064KiB time=00:22:25.08 bitrate=5798.4kbits/s speed=1.11x    
frame=33627
fps=27.72
stream_0_0_q=23.0
bitrate=5798.4kbits/s
total_size=974913584
out_time_us=1345080000
out_time_ms=1345080000
out_time=00:22:25.080000
dup_frames=0
drop_frames=0
speed=1.11x
progress=continue
frame=33759 fps= 28 q=23.0 size=  955904KiB time=00:22:30.36 bitrate=5799.0kbits/s speed=1.11x    
frame=33759
fps=27.71
stream_0_0_q=23.0
bitrate=5799.0kbits/s
total_size=978845744
out_time_us=1350360000
out_time_ms=1350360000
out_time=00:22:30.360000
dup_frames=0
drop_frames=0
speed=1.11x
progress=continue
frame=33917 fps= 28 q=23.0 size=  960000KiB time=00:22:36.68 bitrate=5796.7kbits/s speed=1.11x    
frame=33917
fps=27.73
stream_0_0_q=23.0
bitrate=5796.7kbits/s
total_size=983040048
out_time_us=1356680000
out_time_ms=1356680000
out_time=00:22:36.680000
dup_frames=0
drop_frames=0
speed=1.11x
progress=continue
frame=34058 fps= 28 q=23.0 size=  963840KiB time=00:22:42.36 bitrate=5795.7kbits/s speed=1.11x    
frame=34058
fps=27.73
stream_0_0_q=23.0
bitrate=5795.7kbits/s
total_size=986972208
out_time_us=1362360000
out_time_ms=1362360000
out_time=00:22:42.360000
dup_frames=0
drop_frames=0
speed=1.11x
progress=continue
frame=34196 fps= 28 q=23.0 size=  967424KiB time=00:22:47.88 bitrate=5793.7kbits/s speed=1.11x    
frame=34196
fps=27.73
stream_0_0_q=23.0
bitrate=5793.7kbits/s
total_size=990642224
out_time_us=1367880000
out_time_ms=1367880000
out_time=00:22:47.880000
dup_frames=0
drop_frames=0
speed=1.11x
progress=continue
frame=34338 fps= 28 q=23.0 size=  971520KiB time=00:22:53.56 bitrate=5794.2kbits/s speed=1.11x    
frame=34338
fps=27.73
stream_0_0_q=23.0
bitrate=5794.2kbits/s
total_size=994836528
out_time_us=1373560000
out_time_ms=1373560000
out_time=00:22:53.560000
dup_frames=0
drop_frames=0
speed=1.11x
progress=continue
frame=34510 fps= 28 q=23.0 size=  975104KiB time=00:23:00.44 bitrate=5786.6kbits/s speed=1.11x    
frame=34510
fps=27.76
stream_0_0_q=23.0
bitrate=5786.6kbits/s
total_size=998506544
out_time_us=1380440000
out_time_ms=1380440000
out_time=00:23:00.440000
dup_frames=0
drop_frames=0
speed=1.11x
progress=continue
frame=34671 fps= 28 q=23.0 size=  979456KiB time=00:23:06.80 bitrate=5785.8kbits/s speed=1.11x    
frame=34671
fps=27.77
stream_0_0_q=23.0
bitrate=5785.8kbits/s
total_size=1002962992
out_time_us=1386800000
out_time_ms=1386800000
out_time=00:23:06.800000
dup_frames=0
drop_frames=0
speed=1.11x
progress=continue
frame=34810 fps= 28 q=23.0 size=  983296KiB time=00:23:12.40 bitrate=5785.1kbits/s speed=1.11x    
frame=34810
fps=27.77
stream_0_0_q=23.0
bitrate=5785.1kbits/s
total_size=1006895152
out_time_us=1392400000
out_time_ms=1392400000
out_time=00:23:12.400000
dup_frames=0
drop_frames=0
speed=1.11x
progress=continue
frame=34942 fps= 28 q=23.0 size=  987648KiB time=00:23:17.72 bitrate=5788.6kbits/s speed=1.11x    
frame=34942
fps=27.77
stream_0_0_q=23.0
bitrate=5788.6kbits/s
total_size=1011351600
out_time_us=1397720000
out_time_ms=1397720000
out_time=00:23:17.720000
dup_frames=0
drop_frames=0
speed=1.11x
progress=continue
frame=35090 fps= 28 q=20.0 size=  990976KiB time=00:23:23.64 bitrate=5783.6kbits/s speed=1.11x    
frame=35090
fps=27.77
stream_0_0_q=20.0
bitrate=5783.6kbits/s
total_size=1014759472
out_time_us=1403640000
out_time_ms=1403640000
out_time=00:23:23.640000
dup_frames=0
drop_frames=0
speed=1.11x
progress=continue
frame=35241 fps= 28 q=23.0 size=  994560KiB time=00:23:29.64 bitrate=5779.8kbits/s speed=1.11x    
frame=35241
fps=27.78
stream_0_0_q=23.0
bitrate=5779.8kbits/s
total_size=1018429488
out_time_us=1409640000
out_time_ms=1409640000
out_time=00:23:29.640000
dup_frames=0
drop_frames=0
speed=1.11x
progress=continue
frame=35356 fps= 28 q=23.0 size= 1000448KiB time=00:23:34.24 bitrate=5795.1kbits/s speed=1.11x    
frame=35356
fps=27.76
stream_0_0_q=23.0
bitrate=5795.1kbits/s
total_size=1024458800
out_time_us=1414240000
out_time_ms=1414240000
out_time=00:23:34.240000
dup_frames=0
drop_frames=0
speed=1.11x
progress=continue
frame=35460 fps= 28 q=23.0 size= 1004544KiB time=00:23:38.44 bitrate=5801.6kbits/s speed=1.11x    
frame=35460
fps=27.73
stream_0_0_q=23.0
bitrate=5801.6kbits/s
total_size=1028653104
out_time_us=1418440000
out_time_ms=1418440000
out_time=00:23:38.440000
dup_frames=0
drop_frames=0
speed=1.11x
progress=continue
frame=35583 fps= 28 q=23.0 size= 1008640KiB time=00:23:43.36 bitrate=5805.1kbits/s speed=1.11x    
frame=35583
fps=27.72
stream_0_0_q=23.0
bitrate=5805.1kbits/s
total_size=1032847408
out_time_us=1423360000
out_time_ms=1423360000
out_time=00:23:43.360000
dup_frames=0
drop_frames=0
speed=1.11x
progress=continue
frame=35677 fps= 28 q=23.0 size= 1014528KiB time=00:23:47.12 bitrate=5823.6kbits/s speed=1.11x    
frame=35677
fps=27.68
stream_0_0_q=23.0
bitrate=5823.6kbits/s
total_size=1038876720
out_time_us=1427120000
out_time_ms=1427120000
out_time=00:23:47.120000
dup_frames=0
drop_frames=0
speed=1.11x
progress=continue
frame=35779 fps= 28 q=23.0 size= 1021184KiB time=00:23:51.20 bitrate=5845.1kbits/s speed=1.11x    
frame=35779
fps=27.66
stream_0_0_q=23.0
bitrate=5845.1kbits/s
total_size=1045692464
out_time_us=1431200000
out_time_ms=1431200000
out_time=00:23:51.200000
dup_frames=0
drop_frames=0
speed=1.11x
progress=continue
frame=35921 fps= 28 q=23.0 size= 1026560KiB time=00:23:56.76 bitrate=5853.2kbits/s speed=1.11x    
frame=35921
fps=27.66
stream_0_0_q=23.0
bitrate=5853.2kbits/s
total_size=1051197488
out_time_us=1436760000
out_time_ms=1436760000
out_time=00:23:56.760000
dup_frames=0
drop_frames=0
speed=1.11x
progress=continue
frame=36057 fps= 28 q=23.0 size= 1031424KiB time=00:24:02.32 bitrate=5858.2kbits/s speed=1.11x    
frame=36057
fps=27.65
stream_0_0_q=23.0
bitrate=5858.2kbits/s
total_size=1056178224
out_time_us=1442320000
out_time_ms=1442320000
out_time=00:24:02.320000
dup_frames=0
drop_frames=0
speed=1.11x
progress=continue
frame=36193 fps= 28 q=23.0 size= 1037824KiB time=00:24:07.68 bitrate=5872.7kbits/s speed=1.11x    
frame=36193
fps=27.65
stream_0_0_q=23.0
bitrate=5872.7kbits/s
total_size=1062731824
out_time_us=1447680000
out_time_ms=1447680000
out_time=00:24:07.680000
dup_frames=0
drop_frames=0
speed=1.11x
progress=continue
frame=36323 fps= 28 q=23.0 size= 1043200KiB time=00:24:12.96 bitrate=5881.7kbits/s speed=1.11x    
frame=36323
fps=27.64
stream_0_0_q=23.0
bitrate=5881.7kbits/s
total_size=1068236848
out_time_us=1452960000
out_time_ms=1452960000
out_time=00:24:12.960000
dup_frames=0
drop_frames=0
speed=1.11x
progress=continue
frame=36440 fps= 28 q=20.0 size= 1048320KiB time=00:24:17.64 bitrate=5891.6kbits/s speed=1.11x    
frame=36440
fps=27.63
stream_0_0_q=20.0
bitrate=5891.6kbits/s
total_size=1073479728
out_time_us=1457640000
out_time_ms=1457640000
out_time=00:24:17.640000
dup_frames=0
drop_frames=0
speed=1.11x
progress=continue
frame=36542 fps= 28 q=23.0 size= 1053952KiB time=00:24:21.68 bitrate=5906.9kbits/s speed= 1.1x    
frame=36542
fps=27.60
stream_0_0_q=23.0
bitrate=5906.9kbits/s
total_size=1079246896
out_time_us=1461680000
out_time_ms=1461680000
out_time=00:24:21.680000
dup_frames=0
drop_frames=0
speed= 1.1x
progress=continue
frame=36657 fps= 28 q=23.0 size= 1059072KiB time=00:24:26.24 bitrate=5917.1kbits/s speed= 1.1x    
frame=36657
fps=27.58
stream_0_0_q=23.0
bitrate=5917.1kbits/s
total_size=1084489776
out_time_us=1466240000
out_time_ms=1466240000
out_time=00:24:26.240000
dup_frames=0
drop_frames=0
speed= 1.1x
progress=continue
frame=36783 fps= 28 q=23.0 size= 1063424KiB time=00:24:31.36 bitrate=5920.8kbits/s speed= 1.1x    
frame=36783
fps=27.57
stream_0_0_q=23.0
bitrate=5920.8kbits/s
total_size=1088946224
out_time_us=1471360000
out_time_ms=1471360000
out_time=00:24:31.360000
dup_frames=0
drop_frames=0
speed= 1.1x
progress=continue
frame=36906 fps= 28 q=23.0 size= 1068544KiB time=00:24:36.20 bitrate=5929.8kbits/s speed= 1.1x    
frame=36906
fps=27.56
stream_0_0_q=23.0
bitrate=5929.8kbits/s
total_size=1094189104
out_time_us=1476200000
out_time_ms=1476200000
out_time=00:24:36.200000
dup_frames=0
drop_frames=0
speed= 1.1x
progress=continue
frame=37021 fps= 28 q=23.0 size= 1075968KiB time=00:24:40.88 bitrate=5952.1kbits/s speed= 1.1x    
frame=37021
fps=27.54
stream_0_0_q=23.0
bitrate=5952.1kbits/s
total_size=1101791280
out_time_us=1480880000
out_time_ms=1480880000
out_time=00:24:40.880000
dup_frames=0
drop_frames=0
speed= 1.1x
progress=continue
frame=37153 fps= 28 q=23.0 size= 1080320KiB time=00:24:46.16 bitrate=5954.9kbits/s speed= 1.1x    
frame=37153
fps=27.53
stream_0_0_q=23.0
bitrate=5954.9kbits/s
total_size=1106247728
out_time_us=1486160000
out_time_ms=1486160000
out_time=00:24:46.160000
dup_frames=0
drop_frames=0
speed= 1.1x
progress=continue
frame=37254 fps= 28 q=23.0 size= 1087232KiB time=00:24:50.20 bitrate=5976.8kbits/s speed= 1.1x    
frame=37254
fps=27.50
stream_0_0_q=23.0
bitrate=5976.8kbits/s
total_size=1113325616
out_time_us=1490200000
out_time_ms=1490200000
out_time=00:24:50.200000
dup_frames=0
drop_frames=0
speed= 1.1x
progress=continue
frame=37386 fps= 27 q=23.0 size= 1091840KiB time=00:24:55.48 bitrate=5980.9kbits/s speed= 1.1x    
frame=37386
fps=27.50
stream_0_0_q=23.0
bitrate=5980.9kbits/s
total_size=1118044208
out_time_us=1495480000
out_time_ms=1495480000
out_time=00:24:55.480000
dup_frames=0
drop_frames=0
speed= 1.1x
progress=continue
frame=37535 fps= 28 q=23.0 size= 1096192KiB time=00:25:01.44 bitrate=5980.9kbits/s speed= 1.1x    
frame=37535
fps=27.51
stream_0_0_q=23.0
bitrate=5980.9kbits/s
total_size=1122500656
out_time_us=1501440000
out_time_ms=1501440000
out_time=00:25:01.440000
dup_frames=0
drop_frames=0
speed= 1.1x
progress=continue
frame=37658 fps= 27 q=23.0 size= 1101056KiB time=00:25:06.36 bitrate=5987.8kbits/s speed= 1.1x    
frame=37658
fps=27.50
stream_0_0_q=23.0
bitrate=5987.8kbits/s
total_size=1127481392
out_time_us=1506360000
out_time_ms=1506360000
out_time=00:25:06.360000
dup_frames=0
drop_frames=0
speed= 1.1x
progress=continue
frame=37772 fps= 27 q=23.0 size= 1106688KiB time=00:25:10.88 bitrate=6000.5kbits/s speed= 1.1x    
frame=37772
fps=27.48
stream_0_0_q=23.0
bitrate=6000.5kbits/s
total_size=1133248560
out_time_us=1510880000
out_time_ms=1510880000
out_time=00:25:10.880000
dup_frames=0
drop_frames=0
speed= 1.1x
progress=continue
frame=37907 fps= 27 q=23.0 size= 1112064KiB time=00:25:16.00 bitrate=6009.3kbits/s speed= 1.1x    
frame=37907
fps=27.48
stream_0_0_q=23.0
bitrate=6009.3kbits/s
total_size=1138753584
out_time_us=1516000000
out_time_ms=1516000000
out_time=00:25:16.000000
dup_frames=0
drop_frames=0
speed= 1.1x
progress=continue
frame=38019 fps= 27 q=23.0 size= 1116416KiB time=00:25:20.80 bitrate=6013.7kbits/s speed= 1.1x    
frame=38019
fps=27.46
stream_0_0_q=23.0
bitrate=6013.7kbits/s
total_size=1143210032
out_time_us=1520800000
out_time_ms=1520800000
out_time=00:25:20.800000
dup_frames=0
drop_frames=0
speed= 1.1x
progress=continue
frame=38146 fps= 27 q=23.0 size= 1121792KiB time=00:25:25.84 bitrate=6022.7kbits/s speed= 1.1x    
frame=38146
fps=27.45
stream_0_0_q=23.0
bitrate=6022.7kbits/s
total_size=1148715056
out_time_us=1525840000
out_time_ms=1525840000
out_time=00:25:25.840000
dup_frames=0
drop_frames=0
speed= 1.1x
progress=continue
frame=38269 fps= 27 q=23.0 size= 1126400KiB time=00:25:30.80 bitrate=6027.9kbits/s speed= 1.1x    
frame=38269
fps=27.44
stream_0_0_q=23.0
bitrate=6027.9kbits/s
total_size=1153433648
out_time_us=1530800000
out_time_ms=1530800000
out_time=00:25:30.800000
dup_frames=0
drop_frames=0
speed= 1.1x
progress=continue
frame=38396 fps= 27 q=23.0 size= 1130752KiB time=00:25:35.88 bitrate=6031.1kbits/s speed= 1.1x    
frame=38396
fps=27.43
stream_0_0_q=23.0
bitrate=6031.1kbits/s
total_size=1157890096
out_time_us=1535880000
out_time_ms=1535880000
out_time=00:25:35.880000
dup_frames=0
drop_frames=0
speed= 1.1x
progress=continue
frame=38506 fps= 27 q=23.0 size= 1138944KiB time=00:25:40.20 bitrate=6057.8kbits/s speed= 1.1x    
frame=38506
fps=27.41
stream_0_0_q=23.0
bitrate=6057.8kbits/s
total_size=1166278704
out_time_us=1540200000
out_time_ms=1540200000
out_time=00:25:40.200000
dup_frames=0
drop_frames=0
speed= 1.1x
progress=continue
frame=38621 fps= 27 q=23.0 size= 1146880KiB time=N/A bitrate=N/A speed=N/A    
frame=38621
fps=27.39
stream_0_0_q=23.0
bitrate=N/A
total_size=1174405168
out_time_us=N/A
out_time_ms=N/A
out_time=N/A
dup_frames=0
drop_frames=0
speed=N/A
progress=continue
[mp4 @ 0000021408d7cb80] Starting second pass: moving the moov atom to the beginning of the file
[out#0/mp4 @ 0000021408d7f000] video:1111634KiB audio:36481KiB subtitle:0KiB other streams:0KiB global headers:0KiB muxing overhead: 0.078082%
frame=38644 fps= 27 q=-1.0 Lsize= 1149011KiB time=00:25:45.80 bitrate=6089.2kbits/s speed=1.09x    
frame=38644
fps=27.37
stream_0_0_q=-1.0
bitrate=6089.2kbits/s
total_size=1176587703
out_time_us=1545800000
out_time_ms=1545800000
out_time=00:25:45.800000
dup_frames=0
drop_frames=0
speed=1.09x
progress=end
[libx264 @ 0000021408d92780] frame I:1546  Avg QP:14.03  size:147736
[libx264 @ 0000021408d92780] frame P:37098 Avg QP:17.59  size: 24527
[libx264 @ 0000021408d92780] mb I  I16..4: 12.8% 68.5% 18.6%
[libx264 @ 0000021408d92780] mb P  I16..4:  2.2%  6.8%  0.7%  P16..4: 33.9% 10.8%  4.7%  0.0%  0.0%    skip:40.8%
[libx264 @ 0000021408d92780] 8x8 transform intra:69.5% inter:79.6%
[libx264 @ 0000021408d92780] coded y,uvDC,uvAC intra: 55.4% 52.0% 23.7% inter: 15.6% 11.5% 0.3%
[libx264 @ 0000021408d92780] i16 v,h,dc,p: 33% 19%  7% 41%
[libx264 @ 0000021408d92780] i8 v,h,dc,ddl,ddr,vr,hd,vl,hu: 34% 17% 17%  4%  5%  6%  5%  6%  5%
[libx264 @ 0000021408d92780] i4 v,h,dc,ddl,ddr,vr,hd,vl,hu: 39% 20% 10%  4%  7%  7%  5%  5%  3%
[libx264 @ 0000021408d92780] i8c dc,h,v,p: 58% 17% 20%  5%
[libx264 @ 0000021408d92780] Weighted P-Frames: Y:1.1% UV:0.6%
[libx264 @ 0000021408d92780] ref P L0: 62.3%  9.5% 19.4%  8.7%  0.0%
[libx264 @ 0000021408d92780] kb/s:5891.28
[aac @ 0000021408dfb800] Qavg: 1298.295
